<svg height="571.7" viewBox="0 0 567.43 571.7" width="567.43" xmlns="http://www.w3.org/2000/svg" xmlns:xlink="http://www.w3.org/1999/xlink"><linearGradient id="a" gradientTransform="matrix(.99386482 -.11060166 .11060166 .99386482 -42.81 -35.54)" gradientUnits="userSpaceOnUse" x1="232.39" x2="348.21" y1="453.74" y2="453.74"><stop offset="0" stop-color="#ecc4d7"/><stop offset=".42" stop-color="#efd4d1"/><stop offset="1" stop-color="#f2eac9"/></linearGradient><linearGradient id="b" x1="289.69" x2="429.19" xlink:href="#a" y1="337.18" y2="541.51"/><linearGradient id="c" x1="294.94" x2="322.72" xlink:href="#a" y1="158.22" y2="344.9"/><linearGradient id="d" gradientUnits="userSpaceOnUse" x1="301.83" x2="312.21" y1="337.53" y2="-76.74"><stop offset="0" stop-opacity="0"/><stop offset=".99"/></linearGradient><linearGradient id="e" x1="240.62" x2="74.78" xlink:href="#d" y1="108.84" y2="221.71"/><linearGradient id="f" x1="244.06" x2="433.53" xlink:href="#d" y1="146.56" y2="146.56"/><linearGradient id="g" x1="49.16" x2="277" xlink:href="#a" y1="360.38" y2="360.38"/><linearGradient id="h" x1="158.83" x2="178.8" xlink:href="#d" y1="241.75" y2="241.75"/><linearGradient id="i" gradientTransform="matrix(-1 0 0 1 -590.01 0)" x1="-1130.94" x2="-921.41" xlink:href="#a" y1="344.8" y2="344.8"/><linearGradient id="j" x1="435.65" x2="407.92" xlink:href="#d" y1="241.3" y2="242.12"/><linearGradient id="k" x1="299.66" x2="301.98" xlink:href="#d" y1="202.87" y2="320.57"/><linearGradient id="l" gradientUnits="userSpaceOnUse" x1="295.63" x2="296.21" y1="226.53" y2="239.26"><stop offset=".02" stop-color="#fff" stop-opacity="0"/><stop offset=".58" stop-color="#fff" stop-opacity=".39"/><stop offset=".68" stop-color="#fff" stop-opacity=".68"/><stop offset="1" stop-color="#fff"/></linearGradient><linearGradient id="m" x1="217.76" x2="195.38" xlink:href="#l" y1="233.66" y2="207.81"/><linearGradient id="n" x1="365.55" x2="329.66" xlink:href="#l" y1="238.58" y2="216.97"/><linearGradient id="o" x1="303.93" x2="301.33" xlink:href="#l" y1="81.59" y2="-233.59"/><linearGradient id="p" x1="421.14" x2="543.28" xlink:href="#l" y1="92.9" y2="58.75"/><linearGradient id="q" x1="209.56" x2="974.97" xlink:href="#l" y1="100.28" y2="168"/><g transform="translate(-5.02 -4.67)"><path d="m560.86 351.85c11.21-30.19 18.14-65.42 2.32-93.47-10.75-19.06-30.18-31.38-49.56-41.66-55.47-29.42-117.19-48.92-165.23-89.35-7.86-6.62-15.44-13.85-24.76-18.18-9.88-4.6-21-5.59-31.87-6.48-47-3.81-95.24-6.63-140.35 7.05s-87 47.32-97.49 93.27c-8.07 35.49 3.16 73.66-7.26 108.53-8.66 28.91-31.3 52.22-38.95 81.44-12.81 48.79 21.82 100.33 67.14 122.54s98.2 21.59 148.5 17.51c25.29-2.06 50.62-4.89 75.14-11.4 22-5.82 43.41-14.62 66.08-16.07 35.37-2.26 74.59 12.77 104.24-6.64 10.35-6.76 18.05-17.08 28.63-23.46 21.9-13.21 32.79-16.78 37.59-42.43 5.35-28.6 15.74-54.05 25.83-81.2z" fill="#aac9ff" opacity=".18"/><path d="m254 369.09s-152.54 18.3-168.3 56.73-36.53 72.39-36.53 72.39 127.4 104.79 228.37 71.72 109.46-54.73 160.46-50.93 93.42-52.84 93.42-76.43-157.72-72-183.13-70.46-94.29-3.02-94.29-3.02z" fill="#aac9ff"/><path d="m257.57 367.63c0 5.4-1.46-3.49-3.62 1.46-2.88 6.58-7.7 25.6-10.89 32-5.49 11-.18 25.05 9.16 33.11s21.71 11.48 33.74 14.19c17.79 4 38.12 6.53 52.77-4.32 14-10.36 18-29.73 16.82-47.09a221.85 221.85 0 0 0 -3.69-25.63l-10.34-56.35a6.34 6.34 0 0 0 -1-2.73c-1.13-1.47-3.24-1.64-5.09-1.67-19.35-.22-50.6.36-67.52 11.17-15.79 10.1-10.4 27.53-10.34 45.86z" fill="url(#a)"/><path d="m256.62 380.07c5.71 12.35 17.87 21.22 31.19 24s27.54-.2 39.25-7.13c9.58-5.67 17.82-14.26 21.2-24.87 1.89-6 2.2-12.3 2.5-18.55l.85-17.93c-5.43 7.87-15.29 11.45-24.76 12.78-23.85 3.36-44.61-5.3-66.92-11.86-10.48-3.08-10.28 3.32-9.44 12.19.99 10.49 1.65 21.68 6.13 31.37z" fill="url(#b)"/><path d="m218.65 305.39s38.79 64.16 65.89 67.17 67.9 1.89 96.75-65.6 34-157.28-12-173.27c.01 0-225.49-60.21-150.64 171.7z" fill="url(#c)"/><path d="m377.91 308c-.82 4.3-1.85 9-5.2 11.78-4.61 3.88-11.7 2.62-17-.2-10.85-5.73-18.05-16.35-26.45-25.3a59 59 0 0 0 -12.32-10.2l4.88 9.71a27.11 27.11 0 0 1 2.3 5.54 13.61 13.61 0 0 1 0 6.56 3.09 3.09 0 0 1 -.57 1.34 3.31 3.31 0 0 1 -1.66.91 32.54 32.54 0 0 1 -8.11 1c-4.81.19-9.75.36-14.26-1.31-1.35-.5-2.83-1.41-2.95-2.85-.17-2 2.35-3.12 4.37-3.39 2.72 0 5.31-.34 8-.08 3.7.35 3.56.65 3.58-3.21 0-5.52-.08-11-.13-16.58a25.62 25.62 0 0 0 -15.28-2.05c-10.11 1.98-17.45 10.61-23.11 19.19s-10.92 18-19.66 23.49c-9.71 6.07-26.91 4.84-28.52-8.59-1.71-14.29 6.61-31.92 14.6-43.2a82.1 82.1 0 0 1 44-31.19c6.29-1.81 12.92-2.85 19.41-2 7.18.94 13.86 4.13 20.39 7.27l34.23 16.44c5.86 2.82 11.94 5.8 16 10.88 7.73 9.75 5.79 23.79 3.46 36.04z" fill="url(#d)"/><path d="m446.71 127c.17 1.63 1.77 2.65 3 3.79 5.09 4.88 2.94 13.83-1.88 19s-11.56 8.09-16.93 12.68a16.86 16.86 0 0 0 -6.14 10.44c-.94 5.67.71 11.75.94 18.13a32.26 32.26 0 0 1 -.24 5.36 94.63 94.63 0 0 1 -16.62 42.28c-2.63 3.61-6.12 7.27-10.58 7.47-7.2.32-11.31-8-13.25-14.94a293.31 293.31 0 0 1 -8.66-43.13q-1.05-8.25-1.61-16.54c-1.42 6.67-11.08 8.28-16.77 4.53-.32-.21-.63-.43-.94-.67-5.07-3.85-7.69-10.19-10.49-16-3-6.15-7.13-12.58-13.74-14.29-7.5-1.93-15.11 0-22.74-.31-11.77-.5-23.57-1.8-35.31-2.69-6.37-.48-13-.94-18.92 1.36a17.79 17.79 0 0 0 -5.63 3.52c-3.12 2.89-5.1 6.85-4.56 11-11.92-.41-12.34 9.16-21.17 17.18s-24.57 15.45-17.7 25.2c7.14 10.16 1.73 16.85 1.07 28.85-1.1 19.93-7.22 39.2-13.29 58.23-9.2-13.17-18.57-26.7-22.71-42.21-2.09-7.8-3.42-15.47-4.85-23-2.25-12-4.73-23.81-10.72-35.62-2.36-4.65-5.27-9-6.94-14-2.5-7.38-2.09-15.38-1.65-23.15 1-16.59 2.32-34.36 12.67-47.37a38 38 0 0 1 14.14-10.69c7.57-3.59 15.67-5.77 22.62-11.08 3.72-2.85 6.28-7 8.33-11.57 3.77-8.44 5.88-18.57 10.44-25.74a78.53 78.53 0 0 1 33.63-28.83c22.82-10.43 49-11.08 73.87-7.69 20.58 2.82 41.22 8.47 58.32 20.25a157.5 157.5 0 0 1 20.3 17.45c15.34 14.95 29.74 31.08 50 36.71 6.83 1.9 14.84 3 18.7 8.94 4 6.16 1.21 14.7-3.8 20.07s-11.81 8.65-17.67 13.08c-1.23 1-2.69 2.35-2.52 4z" fill="#3f3d56"/><path d="m183.63 171.62c-3.64 6.45-6.36 14.21-3.81 21.17 3.47-2 7-3.9 10.43-5.85l-23.25 35.28c-2.25-12-4.73-23.81-10.72-35.62-2.36-4.65-5.27-9-6.94-14-2.5-7.38-2.09-15.38-1.65-23.15 1-16.59 2.32-34.36 12.67-47.37a38 38 0 0 1 14.14-10.69 13.19 13.19 0 0 1 4.06 3c5.41 5.9 6.74 15.32 8.94 22.68 3.35 11.13 8.91 23 6.13 34.82-1.72 7.19-6.37 13.28-10 19.73z" fill="url(#e)"/><path d="m428.17 150.15c-4.79 6.38-4.54 14.56-3.45 22.76.45 3.38 1 6.76 1.49 10 .36 2.71.55 5.67-.55 8.11a8.24 8.24 0 0 1 -.75 1.28c-3.45 4.71-10.72 3.24-16.21 1.3-13.47-4.79-23.37-3.53-32.39-5.54-6.25-1.41-12.08-4.37-18.38-12a2.74 2.74 0 0 0 -.94-.67c-5.07-3.85-7.69-10.19-10.49-16-3-6.15-7.13-12.58-13.74-14.29-7.5-1.93-15.11 0-22.74-.31-11.77-.5-23.57-1.8-35.31-2.69-6.37-.48-13-.94-18.92 1.36a17.79 17.79 0 0 0 -5.63 3.52c-2.56-.58-4.48-2.41-5.42-6.47-2.33-10.22 1.49-24.42 8.93-31.7s18.33-9.21 28.68-10.23c22-2.2 45.58-1.21 64.07 10.88 8.48 5.54 15.58 13.2 24.58 17.84 16.41 8.45 36.06 5.49 54.38 7.71 3.09.37 6.69 1.29 7.84 4.19 1.52 3.93-2.51 7.57-5.05 10.95z" fill="url(#f)"/><path d="m275.66 202c-2.14-4.82-6-8.71-10-12.05-16.31-13.3-39-19.11-59.24-13.33a40.41 40.41 0 0 0 -11.11 4.88c-5.58 3.66-9.81 9-13.54 14.57-22.19 32.93-29.6 73.44-32.77 112.93-.71 8.94.26 18.46-3.39 26.64-30.61 68.57-97.24 154.74-96.44 162.57 23.91 20 65.47 47.44 84.3 48.13 10.56-19.41 51.32-158.91 59.88-179.28 3.37-8 9.35-25.56 14.29-32.7 13.27-19.2 34.05-19.25 49.72-36.53 3.95-4.35 7.44-9.33 8.76-15.05 1.12-4.87.6-9.94.36-14.93a132.83 132.83 0 0 1 3.17-35.94c2.27-9.99 10.56-19.63 6.01-29.91z" fill="url(#g)"/></g><rect fill="#aac9ff" height="20.55" rx="8.74" width="19.97" x="157.09" y="231.48"/><rect fill="url(#h)" height="20.55" rx="8.74" width="19.97" x="158.83" y="231.48"/><path d="m332.74 202c2.14-4.82 6-8.71 10.05-12.05 16.3-13.3 39-19.11 59.23-13.33a40.48 40.48 0 0 1 11.12 4.88c5.58 3.66 9.8 9 13.53 14.57 22.16 32.93 29.57 73.44 32.73 112.93.71 8.94-.27 18.46 3.39 26.64 30.59 68.55 76.95 102.82 76.15 110.65 13.73 44.25-47.34 71.09-72.19 68.73-10.56-19.41-43.13-127.61-51.7-148-3.36-8-9.35-25.56-14.29-32.7-13.26-19.2-34-19.25-49.72-36.53-3.94-4.35-7.43-9.33-8.75-15.05-1.13-4.87-.61-9.94-.37-14.93a133.22 133.22 0 0 0 -3.16-35.94c-2.28-9.95-10.56-19.59-6.02-29.87z" fill="url(#i)" transform="translate(-5.02 -4.67)"/><rect fill="#aac9ff" height="20.55" rx="8.74" width="19.97" x="412.55" y="231.48"/><rect fill="url(#j)" height="20.55" rx="8.74" width="19.97" x="410.53" y="231.48"/><path d="m273.63 214s22.38 14.66 52.48-1.16v50.16s-26.63-18.91-49.78 0z" fill="#aac9ff" transform="translate(-5.02 -4.67)"/><path d="m273.63 214s22.38 14.66 52.48-1.16v50.16s-26.63-18.91-49.78 0z" fill="url(#k)" transform="translate(-5.02 -4.67)"/><path d="m272.09 226.17h47.75v15.24h-47.75z" fill="#aac9ff"/><path d="m272.09 226.17h47.75v15.24h-47.75z" fill="url(#l)" opacity=".69"/><circle cx="222.88" cy="239.58" fill="#aac9ff" r="54.99"/><circle cx="222.88" cy="239.58" fill="url(#m)" opacity=".69" r="54.99"/><circle cx="222.55" cy="240.11" fill="#fff" r="47.61"/><circle cx="367.21" cy="239.58" fill="#aac9ff" r="54.99"/><circle cx="367.21" cy="239.58" fill="url(#n)" opacity=".69" r="54.99"/><circle cx="366.87" cy="240.11" fill="#fff" r="47.61"/><rect fill="#aac9ff" height="15.63" rx="6.23" width="14.47" x="285.69" y="208.71"/><path d="m245.59 261.12h-50.68v-4.11h46.56v-48.49h4.12z" fill="#aac9ff"/><path d="m196.74 232.06h9.74v21.8h-9.74z" fill="#aac9ff"/><path d="m210.25 216.03h9.74v37.83h-9.74z" fill="#aac9ff"/><path d="m224.52 223.98h9.74v29.88h-9.74z" fill="#aac9ff"/><path d="m373.78 217.58a27.36 27.36 0 1 1 -27.85 27.42c0-.93.05-1.84.14-2.74l27.22 2.69z" fill="#aac9ff" opacity=".18" transform="translate(-5.02 -4.67)"/><path d="m371.19 215.14a4.87 4.87 0 0 1 .54 0l-.49 27.34-27.24-2.67a27.37 27.37 0 0 1 27.19-24.67z" fill="#aac9ff" opacity=".47" transform="translate(-5.02 -4.67)"/><path d="m402 44.2a31 31 0 0 1 -5.42 5.12c-14.18 10.31-33.92 4.26-50.19-2.25-17.89-7.17-36.12-14.56-55.35-15.77s-40 4.87-51.65 20.23c-6.61 8.71-11.94 21.18-22.85 21.78a15.07 15.07 0 0 1 -11.18-4.55c3.77-8.44 5.88-18.57 10.44-25.74a78.53 78.53 0 0 1 33.63-28.83c22.82-10.43 49-11.08 73.87-7.69 20.58 2.82 41.22 8.47 58.32 20.25a157.5 157.5 0 0 1 20.38 17.45z" fill="url(#o)" opacity=".69" transform="translate(-5.02 -4.67)"/><path d="m429.81 87.75c6.12 4.12 13.75 5.3 21.12 5.64a29.68 29.68 0 0 1 8 1c2.56.85 5 2.67 5.73 5.25.46 1.54.34 3.29 1.27 4.6a1.06 1.06 0 0 0 .61.47 1.17 1.17 0 0 0 1-.5 11.31 11.31 0 0 0 1.22-13.44c-3.24-5-9.75-6.52-15.45-8.36a69 69 0 0 1 -20.14-10.41c-3.57-2.68-11.76-8.29-12.28-.27-.41 6.34 3.88 12.64 8.92 16.02z" fill="url(#p)" opacity=".69" transform="translate(-5.02 -4.67)"/><path d="m237.08 99.6c2.65-6 5.61-12.17 10.63-16.43 6-5.07 14.08-6.75 21.82-8 8.88-1.49 17.87-2.71 26.88-2.39 17.52.58 34.59 7.12 48.89 17.22 11.63 8.25 23.63 19.49 37.76 17.53 12.13 6-4.83 23.13-9.29 21.3-9.15-3.76-27.83-21.19-36.89-25.17-17.8-7.82-38-7.3-57.44-6-4.61.3-9.36.68-13.46 2.82s-7.21 5.91-9.89 9.74c-3.88 5.55-7.34 11.67-8.92 18.31-1.22 5.09.92 11.88-5.77 9.6-15.13-5.13-8.55-28.89-4.32-38.53z" fill="url(#q)" opacity=".69" transform="translate(-5.02 -4.67)"/></svg>