<svg height="597.01" viewBox="0 0 635.4 597.01" width="635.4" xmlns="http://www.w3.org/2000/svg" xmlns:xlink="http://www.w3.org/1999/xlink"><linearGradient id="a" gradientUnits="userSpaceOnUse" x1="0" x2="633.9" y1="205.4" y2="205.4"><stop offset="0" stop-color="#68e1fd"/><stop offset="1" stop-color="#69b9eb"/></linearGradient><linearGradient id="b" gradientTransform="translate(-95.1 -170)" gradientUnits="userSpaceOnUse" x1="4.71" x2="969.31" y1="290.92" y2="487.8"><stop offset="0" stop-color="#fff" stop-opacity="0"/><stop offset="1" stop-color="#fff"/></linearGradient><linearGradient id="c" gradientTransform="translate(-95.1 -170)" gradientUnits="userSpaceOnUse" x1="40.96" x2="1173.8" y1="226.9" y2="203.99"><stop offset="0" stop-opacity="0"/><stop offset=".91" stop-opacity=".8"/><stop offset="1"/></linearGradient><linearGradient id="d" gradientTransform="translate(0 -170)" x1="313.9" x2="117.26" xlink:href="#c" y1="340" y2="414.2"/><linearGradient id="e" x1="353.33" x2="322.92" xlink:href="#c" y1="120.4" y2="380.28"/><linearGradient id="f" gradientTransform="translate(0 -170)" x1="299.94" x2="402.51" xlink:href="#c" y1="340.36" y2="340.69"/><linearGradient id="g" x1="329.49" x2="299.08" xlink:href="#c" y1="117.61" y2="377.49"/><linearGradient id="h" gradientTransform="translate(0 -170)" x1="332.98" x2="366.51" xlink:href="#c" y1="418.71" y2="329.01"/><linearGradient id="i" gradientTransform="translate(0 -170)" x1="383.62" x2="358.16" xlink:href="#c" y1="410.51" y2="321.74"/><linearGradient id="j" gradientTransform="translate(0 -170)" x1="371.63" x2="244.49" xlink:href="#c" y1="340.23" y2="521.29"/><linearGradient id="k" gradientTransform="translate(0 -170)" x1="385.52" x2="258.38" xlink:href="#c" y1="349.98" y2="531.05"/><linearGradient id="l" gradientUnits="userSpaceOnUse" x1="425.17" x2="675.82" y1="273.89" y2="509.88"><stop offset="0" stop-opacity="0"/><stop offset=".02" stop-color="#030304" stop-opacity=".04"/><stop offset=".18" stop-color="#181821" stop-opacity=".39"/><stop offset=".35" stop-color="#292839" stop-opacity=".66"/><stop offset=".53" stop-color="#363449" stop-opacity=".85"/><stop offset=".73" stop-color="#3d3b53" stop-opacity=".96"/><stop offset=".99" stop-color="#3f3d56"/></linearGradient><linearGradient id="m" x1="643.36" x2="429.63" xlink:href="#c" y1="504.69" y2="567.8"/><linearGradient id="n" gradientTransform="translate(-95.1 -170)" gradientUnits="userSpaceOnUse" x1="477.51" x2="507.96" y1="483.15" y2="483.15"><stop offset="0" stop-color="#ecc4d7"/><stop offset=".42" stop-color="#efd4d1"/><stop offset="1" stop-color="#f2eac9"/></linearGradient><linearGradient id="o" x1="492.28" x2="492.77" xlink:href="#c" y1="411.8" y2="398.78"/><linearGradient id="p" gradientTransform="translate(0 -170)" x1="486.41" x2="513.62" xlink:href="#n" y1="446.32" y2="445.83"/><linearGradient id="q" x1="583.1" x2="577.49" xlink:href="#n" y1="441.91" y2="444.87"/><linearGradient id="r" x1="595.75" x2="525" xlink:href="#b" y1="503.25" y2="475.55"/><linearGradient id="s" gradientTransform="matrix(1 0 0 -1 0 598)" x1="470.75" x2="474.88" xlink:href="#c" y1="26.11" y2="7.9"/><linearGradient id="t" gradientTransform="matrix(1 0 0 -1 0 598)" x1="502.09" x2="505.29" xlink:href="#c" y1="21.16" y2="2.21"/><path d="m372.34 589.54c6.45 2.66 13.58 3.05 20.54 3.38q88.12 4.25 176.34 4.08c5.88 0 11.89-.06 17.4-2.1s10.5-6.52 11.47-12.32c-36.83-2.86-73.92-2.58-110.62-3.94-19.24-.71-39.22 1.7-58.36 3.53q-14.55 1.4-29.05 3.28c-6.06.79-22.31 6.32-27.72 4.09z" fill="#1d2741" opacity=".18"/><path d="m487.37 571.45 4.53 11.13-18.3 8.66-16.9 1.23s-2.89-11.13 5-12.12a27.22 27.22 0 0 0 12.78-4.94z" fill="#aac9ff"/><path d="m501.9 576.48a13.73 13.73 0 0 0 -8.42 11.3l-.49 4.69h20.78v-16z" fill="#aac9ff"/><path d="m633.9 66.46v277.88a30.78 30.78 0 0 1 -30.77 30.79h-572.34a30.81 30.81 0 0 1 -30.79-30.79v-277.88a30.82 30.82 0 0 1 30.79-30.79h572.34a30.82 30.82 0 0 1 30.77 30.79z" fill="url(#a)" opacity=".22"/><path d="m635.4 65.43v277.87a30.71 30.71 0 0 1 -30.63 30.79h-572.49a30.78 30.78 0 0 1 -30.8-30.76v-277.9a30.84 30.84 0 0 1 30.8-30.8h572.34a30.78 30.78 0 0 1 30.52 26.83 29.3 29.3 0 0 1 .26 3.97z" fill="#aac9ff"/><path d="m635.4 65.43v277.87a30.71 30.71 0 0 1 -30.63 30.79h-572.49a30.78 30.78 0 0 1 -30.8-30.76v-277.9a30.84 30.84 0 0 1 30.8-30.8h572.34a30.78 30.78 0 0 1 30.52 26.83 29.3 29.3 0 0 1 .26 3.97z" fill="url(#b)"/><path d="m633.66 62.5h-633.4a30.79 30.79 0 0 1 30.53-26.83h572.34a30.78 30.78 0 0 1 30.53 26.83z" fill="url(#c)"/><rect fill="#fff" height="28.87" rx="7.92" stroke="#a0a0a0" stroke-miterlimit="10" stroke-width=".88" width="230.1" x="191.52" y="279.01"/><g fill="#aac9ff"><circle cx="210.28" cy="293.83" r="6.29"/><circle cx="229.85" cy="293.83" r="6.29"/><circle cx="249.43" cy="293.83" r="6.29"/><circle cx="269" cy="293.83" r="6.29"/><path d="m437.15 292.11v-3.32h2.62v-2.14h-2.62v-1.6h2.62v-2.14h-5.25v9.2a6.57 6.57 0 1 0 2.63 0zm-1.31 11a4.57 4.57 0 1 1 4.56-4.58 4.58 4.58 0 0 1 -4.56 4.58z"/></g><rect fill="url(#d)" height="89.14" rx="11.76" width="89.14" x="268.26" y="125.83"/><rect fill="#aac9ff" height="89.14" rx="11.39" width="83.67" x="273.72" y="125.83"/><path d="m360.84 170.69-4.6 4.37-2 1.88a15.49 15.49 0 0 0 -13-5.51 5.71 5.71 0 0 1 -3.13-.51c-3.31-1.88 1.88-8.29 1.88-8.29a28 28 0 0 1 3.42.15h.3l.91.11c4.38.62 11.38 2.69 16.22 7.8z" fill="#fff"/><path d="m356.06 174.65.18.41-2 1.88a15.49 15.49 0 0 0 -13-5.51 5.71 5.71 0 0 1 -3.13-.51l1.88-8.29s1.85 0 3.42.15h.3a6.85 6.85 0 0 1 .91.11s1.09 4.66.28 6.62c0 .03 7.67 1.31 11.16 5.14z" fill="url(#e)" opacity=".26"/><rect fill="url(#f)" height="51.56" rx="4.51" width="12.12" x="306.77" y="144.62"/><path d="m341.22 169.7a20.49 20.49 0 0 1 -20.47 20.3h-4.41a3.57 3.57 0 0 1 -1.59-6.76 3.67 3.67 0 0 1 1.59-.37h1.66a13.35 13.35 0 0 0 13.35-13.35v-.29a13.53 13.53 0 0 0 -13.62-13.07h-2a2.92 2.92 0 0 1 -2.92-2.92v-1.24a2.92 2.92 0 0 1 2.92-2.92h4.69c11.31-.01 20.88 9.27 20.8 20.62z" fill="#fff"/><path d="m335.76 170.52a17.81 17.81 0 0 1 -17.76 17.66h-3.84a3.08 3.08 0 0 1 -1-.16 3.55 3.55 0 0 1 1.6-4.76 3.67 3.67 0 0 1 1.59-.37h1.65a13.35 13.35 0 0 0 13.35-13.35v-.29a13.53 13.53 0 0 0 -13.62-13.07h-2a2.92 2.92 0 0 1 -2.92-2.92v-.55a2.73 2.73 0 0 1 .8-.13h4.07a18.08 18.08 0 0 1 18.08 17.94z" fill="url(#g)" opacity=".26"/><path d="m330.69 165.47s1.34 3.59-.33 9.07c0 0-6.33 6.51-.93 16.86l4.46 4.77-5.19 5.11a23 23 0 0 1 -8.7-21.54c1.18-8.82 10.69-14.27 10.69-14.27z" fill="#fff"/><path d="m324.27 205.4 41.1-39 34.48 29.77-42.46 40.73z" fill="#aac9ff"/><path d="m324.27 205.4 2.73 15.46 30.39 29.16v-13.12z" fill="#aac9ff"/><path d="m399.85 196.17v14.19l-42.46 39.66v-13.12z" fill="#aac9ff"/><path d="m324.27 205.4 2.73 15.46 30.39 29.16v-13.12z" fill="url(#h)"/><path d="m399.85 196.17v14.19l-42.46 39.66v-13.12z" fill="url(#i)"/><path d="m331.85 212.61 41.49-39.33 3.83 3.31-41.41 39.74z" fill="url(#j)"/><path d="m344.1 224 42.48-39.33 3.83 3.3-42.4 39.74z" fill="url(#k)"/><path d="m462.6 262.72a76.29 76.29 0 0 0 1 18.48c.68 3.77 1.59 7.92-.35 11.24-1 1.8-2.8 3.06-4.41 4.39-10.22 8.4-16.13 20.87-24.86 30.81a4.43 4.43 0 0 1 -2.38 1.69 4.31 4.31 0 0 1 -2.78-.79 36.94 36.94 0 0 1 -13-12.64c-1.57-2.56-3-5.48-5.7-6.79-5-2.46-11.06 2.77-11.61 8.34s2.44 10.81 5.33 15.6l13.37 22.18c4.07 6.76 8.36 13.75 15 18a36.33 36.33 0 0 0 15.11 5.1c7.58 1 15.27.5 22.9-.09q20.92-1.62 41.75-4.16c4.76-.58 10.17-1.62 12.58-5.75 1.62-2.78 1.4-6.21 1.12-9.41q-1.47-17.39-3-34.77c-.55-6.57-1.37-13.71-6-18.39-2.77-2.78-6.65-4.36-9.11-7.43a18.6 18.6 0 0 1 -3.3-8.31c-2.37-12.5-.1-25.93-5-37.7-1-2.38-2.34-4.74-4.55-6.07a12.24 12.24 0 0 0 -6.59-1.33c-10.95.31-24.72 5.53-25.52 17.8z" fill="url(#l)" opacity=".21"/><path d="m611.37 439.22c-5.93 68.33-193.92 46.44-329.11 18.74s-246.73 27.7-272.45-18.74c-11.39-20.56-3.81-46.22 8.25-68.48a30.51 30.51 0 0 0 15 3.87h567.24c7.81 18.39 13.18 40.39 11.07 64.61z" fill="#aac9ff" opacity=".18"/><path d="m463.69 410.83-12.31 89.66a23.87 23.87 0 0 0 1.15 11.21l22 64.78 12.86-4-9.7-64.48a9.17 9.17 0 0 1 .26-4l16.69-57.64 7.26 130h11.87l10.23-128.26c3.46-21.44-2.88-37.27-2.88-37.27z" fill="#3f3d56"/><path d="m526.78 387.09-12.18-78.46-1.7-9.56s22.74 13 29.26 35.74c8.53 29.85-15.38 52.28-15.38 52.28z" fill="#aac9ff"/><path d="m526.78 387.09-12.18-78.46-1.7-9.56s22.74 13 29.26 35.74c8.53 29.85-15.38 52.28-15.38 52.28z" fill="url(#m)"/><path d="m539.28 368.83c9.23-18.25-9-50-9-50l-15.7-10.19 1.77-11.33s25.32 2.59 27.79 38.34c.86 11.51-.04 25.73-4.86 33.18z" fill="#aac9ff"/><path d="m408.83 307.57c-.85-2.88-2.33-6.31-5.33-6.57a12 12 0 0 1 -.34 8c-6.54-2.42-8.06-12-14.59-14.48-1 1.06-.44 2.79.18 4.11q1.71 3.69 3.44 7.38c-1.53-2.41-3.16-4.75-4.89-7-.51-.69-1.39-1.44-2.11-1s-.46 1.37-.2 2.09c1.14 3.2 2.44 6.35 3.87 9.43a53.92 53.92 0 0 0 -5.49-7.62c-1.34.33-1.06 2.31-.48 3.56l4.29 9.14-3.44-5c-1.11.11-.94 1.81-.4 2.79a42.74 42.74 0 0 0 20.5 18.43c1.76.75 3.8 1.37 5.53.56 7.44-3.39.9-18.88-.54-23.82z" fill="url(#n)"/><path d="m526.78 331.84v61.52c0 7.54-1.23 13.67-8.78 13.67h-52.72c-7.52 0-7.81-6.07-7.86-13.58l-.42-41.81s-11.38 20.27-20.46 18.3-36-39.08-36-39.08l13.46-11.26 22.58 22.64s3.63-8.25 8.91-26.72 22.41-18.52 22.41-18.52h45.84c16.55 0 13.04 34.84 13.04 34.84z" fill="#aac9ff"/><path d="m526.78 338.77s7.92 11.13 0 22.26z" fill="#3f3d56"/><path d="m463.69 406.64h57.41v4.19h-57.41z" fill="#aac9ff"/><path d="m463.69 406.64h57.41v4.19h-57.41z" fill="url(#o)"/><path d="m483.24 255.16h16.57v42.13h-16.57z" fill="url(#p)"/><path d="m499.82 250.54v46.76h-8.74v-2.85a6.33 6.33 0 0 0 -6.31-6.31h-.51a15.7 15.7 0 0 1 -15.7-15.7v-21.9z" fill="url(#q)"/><path d="m468.56 255.16s-14.5-7.91-9.31-16.57 13.65-3.21 13.65-3.21h28s3.21-.5 4.45 4.94-5.44 39.21-5.44 39.21h-13.91l-1.78-8.78s2.77-3 2.52-6.19a2.6 2.6 0 0 0 -4.94-1.23c-1.25 2.22-.75-7.18-5.2-8.17a17.89 17.89 0 0 0 -8.04 0z" fill="#3f3d56"/><path d="m496.11 297.21s-6.43 8.42-15.34 8.42-34.87 25.47-36.61 33.14-7.59 3.47-7.59 3.47 3.63-8.25 8.91-26.72 22.42-18.52 22.42-18.52h23.3z" fill="url(#r)"/><path d="m487.37 571.45 4.53 11.13-18.3 8.66-16.9 1.23s-2.89-11.13 5-12.12a27.22 27.22 0 0 0 12.78-4.94z" fill="url(#s)"/><path d="m501.9 576.48a13.73 13.73 0 0 0 -8.42 11.3l-.49 4.69h20.78v-16z" fill="url(#t)"/><path d="m120.13 36.19s128.36-81.43 292.74 0z" fill="#aac9ff" opacity=".18"/></svg>