<svg height="241" viewBox="0 0 400 241" width="400" xmlns="http://www.w3.org/2000/svg" xmlns:xlink="http://www.w3.org/1999/xlink"><linearGradient id="a"><stop offset="0" stop-color="#ecc4d7"/><stop offset=".42" stop-color="#efd4d1"/><stop offset="1" stop-color="#f2eac9"/></linearGradient><linearGradient id="b" x1="17.066018%" x2="109.480044%" xlink:href="#a" y1="48.973081%" y2="54.040937%"/><linearGradient id="c"><stop offset="0"/><stop offset=".99" stop-opacity="0"/></linearGradient><linearGradient id="d" x1="56.574074%" x2="48.796296%" xlink:href="#c" y1="-379.351852%" y2="152.5%"/><linearGradient id="e" x1="56.215213%" x2="48.330241%" xlink:href="#c" y1="-371.057514%" y2="161.781076%"/><linearGradient id="f" x1="55.751392%" x2="47.866419%" xlink:href="#c" y1="-339.146568%" y2="193.692022%"/><linearGradient id="g" x1="55.565863%" x2="47.773655%" xlink:href="#c" y1="-330.055659%" y2="202.782931%"/><linearGradient id="h" x1="21.993939%" x2="103.338047%" xlink:href="#a" y1="27.288319%" y2="77.800112%"/><linearGradient id="i" x1="-.000765%" x2="100%" xlink:href="#c" y1="49.968792%" y2="49.968792%"/><linearGradient id="j" x1=".025834%" x2="100%" xlink:href="#c" y1="50.022163%" y2="50.022163%"/><linearGradient id="k" x1="42.675678%" x2="86.464302%" xlink:href="#c" y1="45.902316%" y2="85.451383%"/><linearGradient id="l" x1="-79.768524%" x2="92.363554%" xlink:href="#c" y1="27.282171%" y2="57.064594%"/><linearGradient id="m"><stop offset=".01"/><stop offset=".99" stop-opacity="0"/></linearGradient><linearGradient id="n" x1="-22.016389%" x2="8.514921%" xlink:href="#m" y1="43.71947%" y2="46.399797%"/><linearGradient id="o" x1="-95.912816%" x2="53.612489%" xlink:href="#c" y1="58.385709%" y2="50.018719%"/><linearGradient id="p" x1="53.501394%" x2="102.800754%" xlink:href="#c" y1="44.03794%" y2="5.418061%"/><linearGradient id="q" x1="6.464783%" x2="91.034096%" xlink:href="#c" y1="65.138657%" y2="30.148507%"/><linearGradient id="r" x1="83.241129%" x2="-40.159474%" xlink:href="#c" y1="69.006531%" y2="36.701535%"/><linearGradient id="s" x1="63.854332%" x2="-13.843022%" xlink:href="#c" y1="65.883245%" y2="18.915845%"/><linearGradient id="t" x1="0%" x2="99.984515%" xlink:href="#a" y1="50.014855%" y2="50.014855%"/><linearGradient id="u" x1="53.14242%" x2="49.499593%" xlink:href="#c" y1="-41.66083%" y2="65.282641%"/><linearGradient id="v" x1="53.035714%" x2="49.392857%" xlink:href="#c" y1="-38.884997%" y2="68.101291%"/><linearGradient id="w" x1="42.835416%" x2="51.569799%" xlink:href="#c" y1="-769.939577%" y2="229.909366%"/><linearGradient id="x" x1="50.005432%" x2="50.005432%" xlink:href="#c" y1="-722.65861%" y2="191.540785%"/><linearGradient id="y" x1="0%" x2="100%" xlink:href="#c" y1="50%" y2="50%"/><linearGradient id="z" x1="53.8033%" x2="42.478927%" xlink:href="#m" y1="-5.856298%" y2="147.080227%"/><linearGradient id="A"><stop offset="0" stop-color="#fff"/><stop offset=".09" stop-color="#fff" stop-opacity=".95"/><stop offset=".25" stop-color="#fff" stop-opacity=".83"/><stop offset=".46" stop-color="#fff" stop-opacity=".63"/><stop offset=".71" stop-color="#fff" stop-opacity=".35"/><stop offset=".99" stop-color="#fff" stop-opacity="0"/><stop offset="1" stop-color="#fff" stop-opacity="0"/></linearGradient><linearGradient id="B" x1="50.373543%" x2="49.650985%" xlink:href="#A" y1="-38.042628%" y2="124.231666%"/><linearGradient id="C" x1="390.206972%" x2="-131.732026%" xlink:href="#A" y1="15.559577%" y2="69.266484%"/><linearGradient id="D" x1="49.814126%" x2="50.041644%" xlink:href="#c" y1="421.928817%" y2="-32.491389%"/><linearGradient id="E" x1="-103.699964%" x2="52.794807%" xlink:href="#A" y1="-80.03003%" y2="52.888182%"/><g fill="none" fill-rule="evenodd" transform="matrix(-1 0 0 1 400 0)"><path d="m100.043796 57.9038247c-16.8467157 5.7743426-35.1338203 15.2718725-39.4647206 32.5074104-2.4768856 9.8766529.2189781 20.6719519-3.2506082 30.2375299-4.9197081 13.551235-20.6618005 20.691394-26.1459854 34.023904-2.3163018 5.638247-2.5693431 11.893785-2.350365 17.984064.4087591 11.427171 2.6861314 23.447331 10.2725061 32.011634 11.5523114 13.055458 31.2262773 14.095617 48.6618005 14.183107 90.8353606.369402 181.6707216-.050226 272.5060826-1.258884 3.50365-.048606 7.333333-.209004 9.980535-2.508048 1.897811-1.647729 2.84185-4.126614 3.513382-6.547171 3.761558-13.580399 1.333334-28.959204 8.428224-41.139761 3.537713-6.070837 9.143553-10.71753 12.807786-16.710598 8.209246-13.429721 4.963504-31.593626-4.306569-44.294263-9.270073-12.7006374-23.459854-20.9003984-37.815085-27.389243-14.355232-6.4888446-29.411193-11.6361753-42.715329-20.0498008-25.693431-16.3168925-43.941606-44.2310757-72.569343-54.56462153-24.817518-8.97258965-52.632603-1.71091634-73.479319 13.33737053-8.836983 6.396494-15.664233 14.8441434-24.155717 21.5808765-11.824818 9.3468526-25.878346 13.7796813-39.917275 18.596494z" fill="#aac9ff" opacity=".18"/><path d="m9.23114355 223.43012c-3.31873479.189561-7.22627737.738804-8.75912408 3.679442 4.37956204 4.306454 10.94890513 5.346613 17.06082723 6.070836 33.6058394 3.951634 67.5182482 4.549482 101.3771293 5.147331l101.605839 1.788685c21.19708.374263 42.53528.733945 63.440389-2.785099 13.250609-2.230996 26.238443-6.00765 39.591241-7.49498 12.759124-1.424144 25.688565-.738805 38.442823-2.245578 3.172749-.374263 6.491484-.972112 8.982968-2.955219 2.491484-1.983108 3.756691-5.866693 1.917275-8.476813-1.459854-2.051155-4.16545-2.653864-6.63747-3.057291-9.245742-1.497052-18.574209-2.303904-27.912408-2.872589-86.768857-5.346614-173.026764 9.235059-259.6593678 10.615458-23.2554744.364542-46.1946472 1.249163-69.45012165 2.585817z" fill="#1d2741" opacity=".18"/><path d="m82.0583942 102.65498s2.2287104-16.4432669 3.5279805-19.1651792c1.2992701-2.7219124 1.6301703-14.1685259 16.4914843-6.4159363 0 0 2.180049 2.1969722 1.070559 4.9043028-1.109489 2.7073307-1.002433 4.6564144-.248175 5.6333865s-1.328467 2.0122709-1.328467 2.0122709-.486618-.165259-1.153285 2.9843825c-.6666662 3.1496414-6.768856 2.9503585-6.768856 2.9503585s-3.2749391 1.6574502-2.486618 6.5180083c.7883212 4.860557-7.5766423 4.374502-9.1046228.578406z" fill="url(#b)"/><path d="m81.13382 84.9333865c-.214112-2.726773.486618-5.6528287 2.43309-7.5630279.3529438-.2942268.6786689-.6195756.973236-.9721116.2623546-.4371907.4761122-.9016986.6374696-1.385259 1.0610069-2.3961103 3.13548-4.1955918 5.6593674-4.9091633 2.520688-.6756371 5.2013121-.4130667 7.542579.7388048 1.2019465.5784064 2.306569 1.3560956 3.552311 1.8324303 1.245743.4763346 2.729927.6075697 3.863747-.0972112.209834.6683581.07302 1.3971902-.364963 1.9442231l1.737226-.5638247c.093868 2.085031-.921982 4.0644804-2.671533 5.2056574l.676399-.1020717c-.549878.8992032-1.844282.8992032-2.875912.7047808-1.304283-.2399255-2.5808746-.6112238-3.810219-1.1082071-1.7080292-.6901992-3.7177616-1.6137052-5.270073-.6124303s-1.5377129 3.2517131-2.0340632 5.0501195c-.344994 1.2541847-1.0166207 2.3946309-1.9464721 3.3051793-.1215174-.6244005-.3645543-1.2189053-.7153284-1.7498008-.3645287-.5387503-1.0053057-.8219524-1.6496351-.7290837-1.0802919.252749-1.3090024 1.6914741-1.1678832 2.7899602.1216545.9721116.486618 2.0705976 1.4111922 2.3816733-1.0077454 1.300346-1.8057066 2.7501046-2.3649635 4.2967331l-.5352798-.1701195c-.1185414.2788769-.4393491.410949-.7201946.296494-.486618-.2138646-1.0462287-3.0524303-1.2506083-3.66-.5705315-1.5896061-.9431586-3.2432689-1.109489-4.923745z" fill="#3f3d56"/><ellipse cx="172.068127" cy="219.011873" fill="#aac9ff" rx="5.226277" ry="5.220239"/><path d="m174.681265 219.011873c0 1.449582-1.176478 2.624701-2.627737 2.624701s-2.627737-1.175119-2.627737-2.624701c0-1.449583 1.176478-2.624702 2.627737-2.624702s2.627737 1.175119 2.627737 2.624702z" fill="url(#d)"/><ellipse cx="204.506083" cy="219.011873" fill="#aac9ff" rx="5.226277" ry="5.220239"/><ellipse cx="204.506083" cy="219.011873" fill="url(#e)" rx="2.622871" ry="2.619841"/><ellipse cx="318.476886" cy="219.011873" fill="#aac9ff" rx="5.226277" ry="5.220239"/><ellipse cx="318.476886" cy="219.011873" fill="url(#f)" rx="2.622871" ry="2.619841"/><ellipse cx="350.909976" cy="219.011873" fill="#aac9ff" rx="5.226277" ry="5.220239"/><ellipse cx="350.909976" cy="219.011873" fill="url(#g)" rx="2.622871" ry="2.619841"/><path d="m142.345499 100.992669c.939173-.733944 2.199513-.908924 3.216545-1.5213543.486618-.2867729.885645-.6610358 1.347932-.9721115 1.160927-.8270329 2.521415-1.3303351 3.941606-1.4581673.233576.427729-1.051095 1.5116334-1.591241 1.812988 1.946472-.1992829 3.192214-.3985657 5.15815-.4860558.788322 0 .549879.6221514.248176.7533865-.549879.2430279-2.20438.714502-2.754258.9721114 1.308605-.4663916 2.667429-.7779728 4.048662-.9283664.583941.0923506.340632.7193626-.063261.8651794-1.42748.578165-2.890277 1.065201-4.379562 1.458167 1.007299-.184701 2.403893-.597848 3.406326-.602709.090352-.002615.17804.030746.243754.092738s.104067.147531.106611.23778c.002186.116404-.054536.226063-.150851.291633-.32113.212596-.672076.376399-1.041363.486056l-2.63747.972112c.838198-.134329 1.68644-.196125 2.53528-.184701.520682.038884.666667.578406-.632603 1.015856-1.147298.340626-2.265267.772993-3.343066 1.292909-2.403893 1.244302-5.289538.840876-7.96107.408286.155717-1.540796.160584-2.998964.301703-4.505737z" fill="url(#h)"/><path d="m21.4987835 212.299442-1.6982969 1.497052c-.2072918.172221-.3372223.419936-.3609741.688204-.0237519.268268.0606382.534915.2344534.7408l.0632604.072908 3.0024331 3.101036c.4838793.477011 1.2521583.506526 1.7712895.068048l1.6739659-1.458167z" fill="#aac9ff"/><path d="m103.980535 210.7149-.384428 2.644144c-.036717.350749.067862.70167.290643.975264.22278.273594.545434.447353.896705.482903h.038929l5.625305.763108c.828024.139251 1.620651-.392113 1.805352-1.210279l.399027-2.585817z" fill="#aac9ff"/><path d="m21.4987835 212.299442-1.6982969 1.497052c-.2072918.172221-.3372223.419936-.3609741.688204-.0237519.268268.0606382.534915.2344534.7408l.0632604.072908 3.0024331 3.101036c.4838793.477011 1.2521583.506526 1.7712895.068048l1.6739659-1.458167z" fill="url(#i)"/><path d="m103.980535 210.7149-.384428 2.644144c-.036717.350749.067862.70167.290643.975264.22278.273594.545434.447353.896705.482903h.038929l5.625305.763108c.828024.139251 1.620651-.392113 1.805352-1.210279l.399027-2.585817z" fill="url(#j)"/><path d="m65.8053528 151.809801c-2.1946472-.486056-4.4087591.748526-4.836983 2.746215-1.7323601 8.078247-.7542579 26.456016-9.2457421 31.559602-8.4914841 5.103585-25.1776155 18.518725-29.4695863 23.865338-1.134234 1.343864-.9918821 3.345259.3211678 4.515458l1.620438 1.516494c1.2455525 1.114945 3.029249 1.398258 4.5596107.724223 8.1605839-3.591952 33.0900243-14.912191 37.3673966-21.109402 5.1435523-7.422072 23.8880779-36.011872 23.8880779-37.168685 0-.908924-16.3406326-4.816813-24.2043796-6.649243z" fill="#aac9ff"/><path d="m65.8053528 151.809801c-2.1946472-.486056-4.4087591.748526-4.836983 2.746215-1.7323601 8.078247-.7542579 26.456016-9.2457421 31.559602-8.4914841 5.103585-25.1776155 18.518725-29.4695863 23.865338-1.134234 1.343864-.9918821 3.345259.3211678 4.515458l1.620438 1.516494c1.2455525 1.114945 3.029249 1.398258 4.5596107.724223 8.1605839-3.591952 33.0900243-14.912191 37.3673966-21.109402 5.1435523-7.422072 23.8880779-36.011872 23.8880779-37.168685 0-.908924-16.3406326-4.816813-24.2043796-6.649243z" fill="url(#k)"/><path d="m100.467153 113.936335s17.571776.714502 28.885645-2.916335 13.138686-4.860558 13.138686-4.860558l-.574209-5.385498s-20.160584 4.000239-26.875912 2.634423c-6.715329-1.365817-15.4355236 2.712191-15.4355236 2.712191z" fill="#aac9ff"/><path d="m100.467153 113.936335s17.571776.714502 28.885645-2.916335 13.138686-4.860558 13.138686-4.860558l-.574209-5.385498s-20.160584 4.000239-26.875912 2.634423c-6.715329-1.365817-15.4355236 2.712191-15.4355236 2.712191z" fill="url(#l)"/><path d="m381.211679 29.2265339v123.2345821c0 6.745927-5.47498 12.214581-12.228711 12.214581h-212.467153c-6.754518.000001-12.23089-5.467868-12.233577-12.214581l.277373-129.2908371c.002685-6.7475002 5.478271-12.2167599 12.233576-12.2194422l-.277372 6.065976h212.442822c3.243258-.0064519 6.356246 1.2742543 8.654138 3.5603764 2.297892 2.2861222 3.592457 5.3903921 3.598904 8.6299025z" fill="#aac9ff"/><path d="m381.518248 28.7356175v123.2345815c0 6.745927-5.47498 12.214582-12.22871 12.214582h-212.467154c-6.754517 0-12.230889-5.467868-12.233576-12.214582v-129.086693c0-6.7513148 5.883211-11.9326693 12.652068-11.9326693h210.218978c12.96837.5152191 14.053528 11.0091633 14.068127 17.7556175z" fill="url(#n)"/><g fill="#aac9ff"><rect height="24.842311" rx="9.98" width="218.836983" x="152.36983" y="10.950837"/><path d="m381.211679 29.445259v123.234582c-.002686 6.7475-5.478272 12.216759-12.233577 12.219442l-204.355231-.223586c-6.754518.000001-12.23089-5.467868-12.233577-12.214581v-123.015857c.002686-6.7475002 5.478272-12.2167599 12.233577-12.2194423l201.727494-6.27498c14.861481 0 14.86618 11.7528286 14.861314 18.4944223z"/><path d="m76.4768856 103.048685s3.9318735-5.1764938 15.5425791-5.1230276c11.6107053.0534661 21.9318733.1847012 24.8856443-.7776893 2.953772-.9623904 20.199514-7.2227888 20.199514-7.2227888l2.491484 6.5520319s-16.009732 9.6044618-23.586375 11.1792828c-9.172749 1.910199-16.0243305 4.374502-18.4914838 12.671474s-3.5328467 25.022152-6.9927008 28.191235c-3.459854 3.169084-26.2773722 8.117132-28.8077858 2.649004-2.5304137-5.468127 3.1922141-29.163346 14.759124-48.119522z"/></g><path d="m139.596107 96.4723506s-1.946472 1.1519522-4.749392 2.7267729c-5.352798 2.9649405-13.883211 7.4269325-18.836983 8.4573705-9.172749 1.910199-16.0243305 4.374502-18.4914838 12.671474-2.2773723 7.58247-3.3430657 22.241912-6.160584 27.087889-.222164.400428-.5025907.765708-.8321168 1.083904-3.4549878 3.149641-26.2773722 8.117131-28.8077858 2.649004-2.5304137-5.468128 3.2214111-29.124462 14.7834549-48.119522 0 0 3.9318735-5.176494 15.5425791-5.1230279 11.6107054.0534662 21.9318734.1847012 24.8856444-.7776892 2.953772-.9623904 20.199514-7.2033466 20.199514-7.2033466z" fill="url(#o)"/><path d="m61.6934307 150.876574s-3.3430657 11.694502 4.7785888 15.68502 38.4866175 9.808605 38.4866175 9.808605-5.309002 21.595458-3.562043 30.135458l.676399 3.319761c.307935 1.22602 1.401372 2.092983 2.666666 2.114343l6.559611.340239c1.157949.088922 2.258559-.516096 2.80292-1.540797 3.586374-7.290836 10.705596-36.186852 4.49635-44.192191-7.114355-9.157291-28.1021896-18.061833-28.1021896-18.061833z" fill="#aac9ff"/><path d="m114.199513 210.549641-.097323.204144c-.430425.822597-1.23455 1.384653-2.155718 1.506773-.214034.033109-.430871.044509-.647202.034024l-1.221411-.063188-5.352798-.277051c-1.265295-.021361-2.358732-.888323-2.666667-2.114343l-.652068-3.319761c-1.7469586-8.554582 3.562044-30.135458 3.562044-30.135458s-30.3600975-5.832669-38.4866182-9.808606c-8.1265207-3.975936-4.7785888-15.68502-4.7785888-15.68502l10.43309-.860318 18.3600974-1.516494s20.9829686 8.904541 28.0973236 18.061832c6.170316 7.922709-.778589 36.342391-4.394161 43.973466z" fill="url(#p)"/><path d="m114.199513 210.384382-2.253041 1.696335-.486618.369403c-.485761-.021683-.959423-.158287-1.381995-.398566-.656025-.359978-1.12437-.985489-1.284672-1.715777l-.676399-3.319761c-.759124-3.713466 4.131387-18.47012 5.017032-24.302789 1.226628-8.11978-4.047899-15.802645-12.072993-17.585498-8.9099754-1.997689-19.2895375-4.593227-23.5523112-6.683267-3.7810219-1.856733-5.0754258-5.385498-5.3819951-8.62749l18.3698297-1.516494s20.9829686 8.904542 28.0973236 18.061833c6.170316 7.966454-.778589 36.390996-4.394161 44.022071z" fill="url(#q)"/><path d="m104.812652 214.841514s-3.343066 9.040637-2.6618 9.823187c.681265.78255 27.187348 0 27.187348 0s1.245742-2.430279-4.725061-4.277291-12.924575-2.342788-12.924575-2.342788l-1.250608-2.430279z" fill="#aac9ff"/><path d="m19.7372263 215.298406-4.9878346 1.793546-1.2408759 1.676893 9.9513382 9.351713h11.5620438s-1.4939173-4.496016-5.9708029-4.70016c-4.4768857-.204143-6.3260341-5.011235-6.3260341-5.011235z" fill="#aac9ff"/><path d="m104.812652 214.841514s-3.343066 9.040637-2.6618 9.823187c.681265.78255 27.187348 0 27.187348 0s1.245742-2.430279-4.725061-4.277291-12.924575-2.342788-12.924575-2.342788l-1.250608-2.430279z" fill="url(#r)"/><path d="m19.7372263 215.298406-4.9878346 1.793546-1.2408759 1.676893 9.9513382 9.351713h11.5620438s-1.4939173-4.496016-5.9708029-4.70016c-4.4768857-.204143-6.3260341-5.011235-6.3260341-5.011235z" fill="url(#s)"/><path d="m137.416058 90.5667729c.603407-1.0255777 1.717762-1.6428685 2.43309-2.5809562.340633-.4423107.588808-.9380876.90511-1.39498.775052-1.1988863 1.857052-2.1688757 3.13382-2.8094024.374696.3110757-.43309 1.7886852-.822385 2.2650199 1.751825-.8943426 2.827251-1.5310757 4.618005-2.3427889.744526-.2624701.73966.3839841.510949.6124303-.423357.4277291-1.79562 1.4581673-2.223844 1.890757 1.051493-.9094169 2.206184-1.6924596 3.440389-2.3330677.574209-.121514.574209.549243.253042.8311553-1.114811 1.0610644-2.296464 2.0497782-3.537713 2.9600797.871046-.5395219 2.024331-1.429004 2.978102-1.8032669.085816-.0292801.179779-.0231719.261071.0169713.081293.0401432.143205.1110074.172019.1968932.030943.0900664.022097.1890251-.024331.2721913-.219754.3190613-.485381.6040348-.788321.845737l-2.111922 1.8518725c.734608-.4280803 1.504673-.7923409 2.301703-1.0887649.486618-.1555379.82725.296494-.223844 1.176255-.945145.7391423-1.830303 1.5517672-2.647202 2.4302789-1.785888 2.0268525-4.622871 2.6976095-7.270073 3.2614342-.384429-1.4435856-.929441-2.7996813-1.357665-4.2578486z" fill="url(#t)"/><path d="m189.440389 215.084542c-3.771289 0-6.812652-3.05243-6.812652-5.832669v-34.932829c0-4.758486 3.060827-7.815777 6.812652-7.815777 3.762524 0 6.812652 3.046604 6.812652 6.804781v34.932828c.010355 1.804749-.697493 3.539686-1.967819 4.823129-1.270326 1.283442-2.999066 2.010253-4.805903 2.020537z" fill="#aac9ff"/><path d="m334.131387 215.084542c-3.762524 0-6.812652-3.046604-6.812652-6.804781v-34.952271c0-3.758177 3.050128-6.804781 6.812652-6.804781s6.812652 3.046604 6.812652 6.804781v34.932829c0 3.758176-3.050128 6.804781-6.812652 6.804781z" fill="#aac9ff"/><path d="m189.440389 215.084542c-3.771289 0-6.812652-3.05243-6.812652-5.832669v-34.932829c0-4.758486 3.060827-7.815777 6.812652-7.815777 3.762524 0 6.812652 3.046604 6.812652 6.804781v34.932828c.010355 1.804749-.697493 3.539686-1.967819 4.823129-1.270326 1.283442-2.999066 2.010253-4.805903 2.020537z" fill="url(#u)"/><path d="m334.131387 215.084542c-3.762524 0-6.812652-3.046604-6.812652-6.804781v-34.952271c0-3.758177 3.050128-6.804781 6.812652-6.804781s6.812652 3.046604 6.812652 6.804781v34.932829c0 3.758176-3.050128 6.804781-6.812652 6.804781z" fill="url(#v)"/><path d="m209.114355 215.847649h-41.571776c-.889568 0-1.610706-.720304-1.610706-1.608844 0-.888541.721138-1.608845 1.610706-1.608845h41.571776c.889568 0 1.610706.720304 1.610706 1.608845 0 .88854-.721138 1.608844-1.610706 1.608844z" fill="#aac9ff"/><path d="m355.479319 215.847649h-41.571776c-.889569 0-1.610706-.720304-1.610706-1.608844 0-.888541.721137-1.608845 1.610706-1.608845h41.571776c.889568 0 1.610705.720304 1.610705 1.608845 0 .88854-.721137 1.608844-1.610705 1.608844z" fill="#aac9ff"/><path d="m355.479319 215.847649h-41.571776c-.889569 0-1.610706-.720304-1.610706-1.608844 0-.888541.721137-1.608845 1.610706-1.608845h41.571776c.889568 0 1.610705.720304 1.610705 1.608845 0 .88854-.721137 1.608844-1.610705 1.608844z" fill="url(#w)"/><path d="m209.114355 215.847649h-41.571776c-.889568 0-1.610706-.720304-1.610706-1.608844 0-.888541.721138-1.608845 1.610706-1.608845h41.571776c.889568 0 1.610706.720304 1.610706 1.608845 0 .88854-.721138 1.608844-1.610706 1.608844z" fill="url(#x)"/><path d="m355.479319 215.847649h-41.571776" fill="url(#y)"/><path d="m302.773723 111.564382v-7.198486c.013487-2.514221-2.013318-4.5647785-4.530414-4.5835056h-101.021898c-3.429272 0-6.209246-2.7767621-6.209246-6.2020717v-9.6725099c0-3.4253097 2.779974-6.2020717 6.209246-6.2020717h101.406326c2.515201.0000128 4.556433-2.0323395 4.564477-4.5446216v-7.8109163c.005186-1.58155.831447-3.0471822 2.182671-3.8716454 1.351223-.8244632 3.033927-.8897029 4.445066-.1723387.087219.0443234.170277.0963783.248176.1555379l30.111922 22.5043825c1.462703.8059633 2.367778 2.3456588 2.359664 4.0142121s-.928121 3.1993941-2.398594 3.9911265l-30.520681 23.5348209c-.088977.070045-.185231.130338-.287105.17984-1.417786.691254-3.092584.601312-4.427994-.237798-1.33541-.839109-2.14165-2.308136-2.131616-3.883955z" fill="#aac9ff"/><path d="m156.306569 29.576494s.355231-9.7211155 11.615572-10.4890836h25.508516s-14.725061 2.3330677-16.136253 10.4890836c-1.411192 8.156016 0 119.141992 0 119.141992s2.077859 12.992271 21.985401 13.643586h-34.676399s-7.717761-2.09004-8.296837-7.247092c-.579075-5.157052 0-125.538486 0-125.538486z" fill="#aac9ff"/><path d="m302.773723 111.564382v-7.198486c.013487-2.514221-2.013318-4.5647785-4.530414-4.5835056h-101.021898c-3.429272 0-6.209246-2.7767621-6.209246-6.2020717v-9.6725099c0-3.4253097 2.779974-6.2020717 6.209246-6.2020717h101.406326c2.515201.0000128 4.556433-2.0323395 4.564477-4.5446216v-7.8109163c.005186-1.58155.831447-3.0471822 2.182671-3.8716454 1.351223-.8244632 3.033927-.8897029 4.445066-.1723387.087219.0443234.170277.0963783.248176.1555379l30.111922 22.5043825c1.462703.8059633 2.367778 2.3456588 2.359664 4.0142121s-.928121 3.1993941-2.398594 3.9911265l-30.520681 23.5348209c-.088977.070045-.185231.130338-.287105.17984-1.417786.691254-3.092584.601312-4.427994-.237798-1.33541-.839109-2.14165-2.308136-2.131616-3.883955z" fill="#aac9ff"/><path d="m302.773723 111.564382v-7.198486c.013487-2.514221-2.013318-4.5647785-4.530414-4.5835056h-101.021898c-3.429272 0-6.209246-2.7767621-6.209246-6.2020717v-9.6725099c0-3.4266933 4.836983-12.3458168 8.272507-12.3458168l-2.058395 6.1437451h101.40146c2.515201.0000128 4.556433-2.0323395 4.564477-4.5446216v-7.8109163c0-2.5129084 4.184915-10.6251793 6.70073-10.6203187.715329 0-.710462 6.2506773-.072993 6.5763346.087219.0443234.170277.0963783.248176.1555379l35.756691 19.1117131c2.209245 1.2102789-2.632604 7.3734662-3.844283 9.5752988-.423323.7727953-1.062378 1.4060462-1.839416 1.8227092l-30.520681 23.5348209c-.088977.070045-.185231.130338-.287105.17984-1.417786.691254-3.092584.601312-4.427994-.237798-1.33541-.839109-2.14165-2.308136-2.131616-3.883955z" fill="url(#z)"/><path d="m306.608273 105.158167v-7.1984857c.007768-1.2078942-.465184-2.369396-1.314807-3.2289755-.849622-.8595795-2.006315-1.3468206-3.215607-1.3545305h-101.021898c-3.429272 0-6.209246-2.7767621-6.209246-6.2020717v-9.67251c.002684-3.4241987 2.781086-6.1993913 6.209246-6.2020717h101.406326c2.516307.0026881 4.559107-2.0312261 4.564477-4.5446215v-7.8109163c.010728-2.5141803 2.057104-4.5451446 4.574209-4.539761.712915.0013489 1.415816.1677206 2.053528.4860558.086191.0461119.169111.0980801.248175.1555378l30.121655 22.5141036c1.459901.8056406 2.362188 2.3438805 2.352043 4.0098166s-.9311 3.1930986-2.400705 3.9809404l-30.520681 23.5348207c-.087776.071731-.184235.132151-.287105.179841-1.417786.691253-3.092584.601311-4.427994-.237798-1.33541-.83911-2.141651-2.308136-2.131616-3.883955z" fill="#aac9ff"/><path d="m306.608273 105.158167v-7.1984857c.007768-1.2078942-.465184-2.369396-1.314807-3.2289755-.849622-.8595795-2.006315-1.3468206-3.215607-1.3545305h-101.021898c-3.429272 0-6.209246-2.7767621-6.209246-6.2020717v-9.67251c.002684-3.4241987 2.781086-6.1993913 6.209246-6.2020717h101.406326c2.516307.0026881 4.559107-2.0312261 4.564477-4.5446215v-7.8109163c.010728-2.5141803 2.057104-4.5451446 4.574209-4.539761.712915.0013489 1.415816.1677206 2.053528.4860558.086191.0461119.169111.0980801.248175.1555378l30.121655 22.5141036c1.459901.8056406 2.362188 2.3438805 2.352043 4.0098166s-.9311 3.1930986-2.400705 3.9809404l-30.520681 23.5348207c-.087776.071731-.184235.132151-.287105.179841-1.417786.691253-3.092584.601311-4.427994-.237798-1.33541-.83911-2.141651-2.308136-2.131616-3.883955z" fill="url(#B)"/><path d="m152.647202 17.1286056s-.973236-5.0598407 4.145985-6.1777689h32.973236s-14.72506-1.97824706-16.136253 6.1777689c-1.411192 8.1560159 0 131.5898804 0 131.5898804s3.464721 14.951076 23.357665 15.60239h-33.688565s-9.386861-.486055-10.652068-9.205896c-.744526-5.137609 0-137.9863744 0-137.9863744z" fill="url(#C)"/><path d="m382.851582 167.407331v1.983107c0 1.706056-2.10219 3.086454-4.690998 3.086454h-230.214112c-2.588808 0-4.690998-1.380398-4.690998-3.086454v-1.983107c.00066-.100914.008793-.20164.024331-.301355.228711-1.5651 2.233577-2.7851 4.666667-2.7851h230.214112c2.43309 0 4.437956 1.22 4.666667 2.7851.015538.099715.023671.200441.024331.301355z" fill="#aac9ff"/><path d="m382.827251 166.44008c-.223845 1.185976-2.228711 2.114342-4.666667 2.114342h-230.214112c-2.43309 0-4.442822-.928366-4.666667-2.114342.228711-1.190837 2.233577-2.119204 4.666667-2.119204h230.214112c2.43309 0 4.437956.942949 4.666667 2.119204z" fill="url(#D)"/><path d="m138.783455 94.8343426.812652 1.638008c-5.352798 2.9649402-18.632603 10.1537054-23.586375 11.1792824-9.172749 1.9102-16.0243305 4.374502-18.4914838 12.671475-2.2773723 7.58247-3.3430657 22.241912-6.160584 27.087888l-.8321168.918645-18.3990267 1.535937s6.326034-32.293546 11.1922141-35.856335c4.86618-3.562789 15.9221411-6.163187 23.8150852-8.389323 7.892944-2.226135 31.649635-10.7855774 31.649635-10.7855774z" fill="url(#E)"/></g></svg>