<svg viewBox="0 0 422.61 594.72" xmlns="http://www.w3.org/2000/svg" xmlns:xlink="http://www.w3.org/1999/xlink"><linearGradient id="a" gradientUnits="userSpaceOnUse" x1="471.91" x2="483.86" y1="448.11" y2="448.11"><stop offset="0" stop-color="#ecc4d7"/><stop offset=".42" stop-color="#efd4d1"/><stop offset="1" stop-color="#f2eac9"/></linearGradient><linearGradient id="b" gradientUnits="userSpaceOnUse" x1="401.28" x2="629.44" y1="390.68" y2="311.95"><stop offset="0" stop-color="#fff"/><stop offset="0" stop-color="#fff" stop-opacity="0"/><stop offset=".99" stop-color="#fff"/></linearGradient><linearGradient id="c" x1="461.61" x2="453.59" xlink:href="#a" y1="332.57" y2="352.99"/><linearGradient id="d" x1="441.49" x2="469.3" xlink:href="#a" y1="331.58" y2="331.58"/><linearGradient id="e" x1="409.29" x2="423.07" xlink:href="#a" y1="297.13" y2="297.13"/><linearGradient id="f" gradientUnits="userSpaceOnUse" x1="265.63" x2="206.42" y1="405.63" y2="429.54"><stop offset="0" stop-color="#fff"/><stop offset="0" stop-opacity="0"/><stop offset="1"/></linearGradient><path d="m341.24 144.13c-22.17 23.14-29.54 56.75-48.36 82.69-22 30.34-60.06 51.17-68 87.82-8.7 40.36 23.83 77.36 56.64 102.36 15.8 12.05 32.77 23.67 43.05 40.67 6.43 10.64 9.85 22.78 15 34.1 16.34 36.13 52.45 63.7 92.06 65.71s80.11-24.15 90.84-62.32c5.24-18.66 3.93-39.54 14.08-56 13.28-21.59 41.17-28.25 61.34-43.6 38.58-29.34 40.71-95.19 4.11-127-32.09-27.86-85.77-31.51-103.81-70-4.89-10.43-6.28-22.16-10.56-32.85-22.27-55.59-108.17-61.48-146.39-21.58z" fill="#aac9ff" opacity=".18" transform="translate(-220.76 -2.28)"/><circle cx="190.26" cy="262.46" fill="#3f3d56" r="21.51"/><g transform="translate(-220.76 -2.28)"><path d="m483.86 427.49s-1.21 27-2.95 32.23.33 7.63-5.13 9-3.54-28.06-3.54-28.06l1.84-11.28z" fill="url(#a)"/><path d="m426.77 435.34 12.63 73.93h10.8l2.7-42.59 2.49 53.47h11.85s10.19-58.57 8.31-69.35a31.51 31.51 0 0 0 -3.31-10.17z" fill="#25233a"/><path d="m434.22 320.08c-.44-5.71-.13-11.78 2.94-16.61a16.52 16.52 0 0 1 11.21-7.36c6.57-1 13 2 19 4.9 8.8 4.32 17.66 8.68 25.4 14.67s14.39 13.84 17.32 23.19a53.22 53.22 0 0 1 2.09 14 54 54 0 0 1 -.91 13.2 37.76 37.76 0 0 1 -26.83 28c-15 3.9-32.09-1.61-45.66 5.84a6.31 6.31 0 0 1 -3 1.1 3.68 3.68 0 0 1 -3.18-2.63 8.3 8.3 0 0 1 0-4.34 23.11 23.11 0 0 1 6.39-11.62c4.14-4.05 9.66-6.39 14.18-10a4.39 4.39 0 0 0 1.68-2.12c.54-2-1.54-3.65-3.45-4.39s-4.19-1.4-4.95-3.29c-.62-1.53 0-3.23.43-4.83 1.73-7-2-11.7-5.85-16.89-4.47-6-6.25-13.5-6.81-20.82z" fill="#3f3d56"/><path d="m467.52 322.15s6.74 11.27 14.49 18.73 20.95 20.87 12.54 31.05a50 50 0 0 1 -18.77 14.07l-17.07-17.15v-28z" fill="#25233a"/><path d="m408.36 312.14 16.28-1.21s-4.57 31.6 17.65 41.86 35.89 12.4 37.4 20.32 7.39 53.63 7.39 53.63l-11.19 2.61-.34-35.35.43 44.59s-24.24 13.6-31.22 10.92-21.63-4.91-21.28-27.63 11-38.8-.56-56.09-14.86-45.46-14.56-53.65z" fill="#aac9ff"/><path d="m408.36 312.14 16.28-1.21s-4.57 31.6 17.65 41.86 35.89 12.4 37.4 20.32 7.39 53.63 7.39 53.63l-11.19 2.61-.34-35.35.43 44.59s-24.24 13.6-31.22 10.92-21.63-4.91-21.28-27.63 11-38.8-.56-56.09-14.86-45.46-14.56-53.65z" fill="url(#b)"/><path d="m447.12 355s.62 9.4 6.66 9.17 6.05-3.25 6.05-3.25l3.84-16.38-16.55 1s1.88 6.94 0 9.46z" fill="url(#c)"/><path d="m447.87 349.84s-.76 4.84 2.35 6.21 8.12-.35 9.33-1.73l.28 6.56 2.8-11.95z" fill="#222a72"/><path d="m441.94 321.83s-3.49 24.88 9.05 29.91 16.38-8.47 18-14.95-3.07-29.7-13-26.09a27 27 0 0 0 -14.05 11.13z" fill="url(#d)"/><path d="m412.47 311.84s1.17-8.7 1.2-8.86a4.48 4.48 0 0 0 -1.86-4.23c-1.2-.9-2.52-3-2.52-7.85s5.14-10.1 7.26-8 2.13 3.76 4.1 4.07.45 5.31 0 7 2.42 17.11 2.42 17.11z" fill="url(#e)"/></g><path d="m254.79 391.76 6.5 33.87-6.16 1.44z" fill="url(#f)"/><path d="m455.39 520.15s-2.81 27.7 1.8 50.21h3.21l6.84-50.21z" fill="#25233a" transform="translate(-220.76 -2.28)"/><path d="m439.4 509.27 6.44 56.49 2.36-1s4.42-40 4.06-43.86-2.06-11.65-2.06-11.65z" fill="#25233a" transform="translate(-220.76 -2.28)"/><path d="m448.2 564.78s1.43 2.42 1.27 4.14c-.12 1.18-8.28 11.3-14.11 16.76-6.3 5.9-12.41 3.72-12.41 3.72-2.28-.23-3.46-5.47-1.72-7a49.53 49.53 0 0 1 12.64-7.88c10.45-4.42 12-8.8 12-8.8z" fill="#25233a" transform="translate(-220.76 -2.28)"/><path d="m457.19 570.36a15.45 15.45 0 0 0 -.67 6.09c.4 2.93 13 17.27 13 17.27s10.32 6.7 13.94.94-10.68-13.4-13.52-15-9.54-9.29-9.54-9.29z" fill="#25233a" transform="translate(-220.76 -2.28)"/><path d="m385 231.49a21.93 21.93 0 0 0 20.48 15.39c5.75 0 12.22-2.19 18.22-9.44 16-19.32-13.45-53.37 26.22-94.54s43.8-114.15-27.45-119c-54.41-3.68-76.67 30.16-82.93 51.34v21.47l38.22 15s14.62-44.36 38.69-38.71 1.4 45.43-13.79 60.55c-33.47 33.33-23.79 78.89-17.66 97.94z" fill="#3f3d56" transform="translate(-220.76 -2.28)"/><path d="m385 204.3a22 22 0 0 0 20.48 15.39c5.75 0 12.22-2.61 18.22-9.85 16-19.33-15.49-38.54 24.19-79.71s45.86-122.81-25.39-127.63-82.93 72.77-82.93 72.77l38.22 15s14.59-44.31 38.66-38.68 1.4 45.42-13.79 60.55c-33.47 33.3-23.79 73.11-17.66 92.16z" fill="#aac9ff" transform="translate(-220.76 -2.28)"/><circle cx="190.26" cy="248.39" fill="#aac9ff" r="21.51"/><circle cx="316.98" cy="256.88" fill="#3f3d56" r="9.14" transform="matrix(.423409 -.90593864 .90593864 .423409 -270.72 432.97)"/><path d="m301.77 247.36a9.35 9.35 0 0 0 10.42 3.18c2.3-.82 4.56-2.65 5.91-6.42 3.58-10-13.12-19.37-3.23-41.58s.94-52-28.22-43.56c-22.28 6.42-26.27 23.17-25.7 32.55l3.11 8.56 17.44.44s-.6-19.83 9.84-21.07 7.15 17.95 3.27 26.2c-8.54 18.18 1.94 34.98 7.16 41.7z" fill="#3f3d56" transform="translate(-220.76 -2.28)"/><path d="m297.83 236.49a9.31 9.31 0 0 0 10.41 3.18c2.31-.82 4.51-2.81 5.85-6.58 3.59-10-11.77-13.15-1.89-35.36s.51-55.72-28.66-47.31-22.54 41.11-22.54 41.11l17.44.43s-.59-19.82 9.84-21.06 7.15 17.95 3.27 26.19c-8.55 18.18 1.05 32.68 6.28 39.4z" fill="#aac9ff" transform="translate(-220.76 -2.28)"/><circle cx="314.94" cy="251.25" fill="#aac9ff" r="9.14" transform="matrix(.89818109 -.43962567 .43962567 .89818109 -299.15 161.74)"/><path d="m276.7 344.53a9.14 9.14 0 1 1 -10.89-7 9.13 9.13 0 0 1 10.89 7z" fill="#3f3d56" transform="translate(-220.76 -2.28)"/><path d="m253.94 335.06a9.32 9.32 0 0 0 9.91 4.52c2.39-.51 4.88-2 6.7-5.58 4.87-9.48-10.46-20.93 2.25-41.65s7.76-51.39-22.26-46.88c-22.93 3.44-29.08 19.52-29.74 28.89l2 8.9 17.2 2.74s2-19.73 12.52-19.59 4.73 18.73-.19 26.39c-10.87 16.89-2.68 34.92 1.61 42.26z" fill="#3f3d56" transform="translate(-220.76 -2.28)"/><path d="m251.46 323.77a9.33 9.33 0 0 0 9.91 4.52c2.39-.51 4.83-2.2 6.66-5.75 4.87-9.48-9.95-14.58 2.76-35.3s7.81-55.18-22.21-50.67-27.78 37.79-27.78 37.79l17.2 2.72s2-19.73 12.52-19.59 4.73 18.73-.19 26.39c-10.82 16.91-3.17 32.55 1.13 39.89z" fill="#aac9ff" transform="translate(-220.76 -2.28)"/><circle cx="266.49" cy="340.65" fill="#aac9ff" r="9.14" transform="matrix(.99722426 -.07445659 .07445659 .99722426 -245.4 18.52)"/><path d="m544.25 275.84a9.14 9.14 0 1 1 -6.88-10.95 9.15 9.15 0 0 1 6.88 10.95z" fill="#3f3d56" transform="translate(-220.76 -2.28)"/><path d="m527.72 257.56a9.32 9.32 0 0 0 7 8.32c2.37.56 5.27.25 8.44-2.18 8.45-6.49-.51-23.39 19.83-36.69s29-43.15-.09-51.9c-22.2-6.69-34.64 5.22-39.24 13.41l-2 8.88 14.42 9.82s10.25-17 19.69-12.36-3.73 18.95-11.46 23.78c-17.03 10.64-17.31 30.44-16.59 38.92z" fill="#3f3d56" transform="translate(-220.76 -2.28)"/><path d="m530.3 246.29a9.31 9.31 0 0 0 7 8.32c2.38.57 5.32.08 8.49-2.35 8.45-6.49-2.77-17.44 17.58-30.74s30.63-46.52 1.63-55.3-41.27 22.3-41.27 22.3l14.42 9.82s10.25-17 19.69-12.37-3.73 19-11.45 23.79c-17.08 10.64-16.84 28.06-16.09 36.53z" fill="#aac9ff" transform="translate(-220.76 -2.28)"/><circle cx="536.67" cy="267.97" fill="#aac9ff" r="9.14" transform="matrix(.36974676 -.92913257 .92913257 .36974676 -131.52 665.24)"/><path d="m590.66 357.61a6.79 6.79 0 1 1 -1.63-9.47 6.79 6.79 0 0 1 1.63 9.47z" fill="#3f3d56" transform="translate(-220.76 -2.28)"/><path d="m584.46 340.37a6.93 6.93 0 0 0 2.49 7.7 7.22 7.22 0 0 0 6.42.89c7.65-2.07 6.26-16.23 24-19.63s32.13-21.48 14.61-35.72c-13.37-10.87-25.29-6.2-30.77-1.87l-3.91 5.53 7.14 10.84s11.85-8.78 17-2.94-7.92 12-14.6 13.12c-14.68 2.5-20.49 16.03-22.38 22.08z" fill="#3f3d56" transform="translate(-220.76 -2.28)"/><path d="m589.42 333.34a6.94 6.94 0 0 0 2.49 7.71c1.47 1.06 3.63 1.56 6.49.78 7.65-2.07 3-12.77 20.79-16.16s34.23-23.35 16.71-37.59-34.68 3.66-34.68 3.66l7.14 10.83s11.85-8.78 17-2.93-7.92 12-14.6 13.12c-14.69 2.5-19.45 14.54-21.34 20.58z" fill="#aac9ff" transform="translate(-220.76 -2.28)"/><circle cx="587.68" cy="350.06" fill="#aac9ff" r="6.8" transform="matrix(.56583075 -.82452141 .82452141 .56583075 -254.25 634.23)"/><path d="m411.61 538.23a.7.7 0 0 1 -.36-.1.71.71 0 0 1 -.26-1 238.22 238.22 0 0 0 18.45-43.52c7.42-23.55 14.42-58.7 5.6-92.44-17-64.95-20.94-104.83-21-105.23a.72.72 0 0 1 .65-.78.71.71 0 0 1 .77.64c0 .4 4 40.18 20.94 105 8.91 34.08 1.86 69.53-5.63 93.27a240.84 240.84 0 0 1 -18.56 43.77.72.72 0 0 1 -.6.39z" fill="#fff" transform="translate(-220.76 -2.28)"/></svg>