<svg height="24" viewBox="0 0 24 24" width="24" xmlns="http://www.w3.org/2000/svg"><g fill="#2d5fe6" fill-rule="evenodd" transform="translate(1)"><path d="m18.8571429 2h.1428571c1.6568542 0 3 1.34314575 3 3v16c0 1.6568542-1.3431458 3-3 3h-16c-1.65685425 0-3-1.3431458-3-3v-16c0-1.65685425 1.34314575-3 3-3h.14285714v2.3047619c0 1.15716805.93807005 2.0952381 2.0952381 2.0952381s2.09523809-.93807005 2.09523809-2.0952381v-2.3047619h7.33333337v2.3047619c0 1.15716805.93807 2.0952381 2.0952381 2.0952381 1.157168 0 2.0952381-.93807005 2.0952381-2.0952381zm-16.8571429 5.5v14.3h18v-14.3z"/><path d="m4.5 9h3v3h-3z"/><path d="m9.5 9h3v3h-3z"/><path d="m14.5 9h3v3h-3z"/><path d="m9.5 13h3v3h-3z"/><path d="m14.5 13h3v3h-3z"/><path d="m14.5 17h3v3h-3z"/><path d="m4.5 13h3v3h-3z"/><path d="m9.5 17h3v3h-3z"/><rect height="5" rx="1.25" width="2.5" x="4"/><rect height="5" rx="1.25" width="2.5" x="15.5"/></g></svg>