<svg height="24" viewBox="0 0 24 24" width="24" xmlns="http://www.w3.org/2000/svg"><path d="m13.0208153 11.0208153h6.5c.5522847 0 1 .4477152 1 1 0 .5522847-.4477153 1-1 1h-6.5v6.5c0 .5522847-.4477153 1-1 1-.5522848 0-1-.4477153-1-1v-6.5h-6.50000002c-.55228475 0-1-.4477153-1-1 0-.5522848.44771525-1 1-1h6.50000002v-6.50000002c0-.55228475.4477152-1 1-1 .5522847 0 1 .44771525 1 1z" fill="#2d5fe6" fill-rule="evenodd" transform="matrix(.70710678 .70710678 -.70710678 .70710678 12.020815 -4.979185)"/></svg>