<svg height="20" viewBox="0 0 20 20" width="20" xmlns="http://www.w3.org/2000/svg"><path d="m16.5857864 9c.5522848 0 1 .44771525 1 1 0 .5522847-.4477152 1-1 1h-11.99999996c-.55228475 0-1-.4477153-1-1 0-.55228475.44771525-1 1-1zm-11.17157284 1.0002814 6.36396104 6.363961c.3905243.3905243.3905243 1.0236893 0 1.4142136s-1.0236893.3905243-1.4142136 0l-7.07106778-7.0710678c-.39052429-.3905243-.39052429-1.02368932 0-1.41421361l7.07106778-7.07106781c.3905243-.39052429 1.0236893-.39052429 1.4142136 0s.3905243 1.02368927 0 1.41421356z" transform="matrix(-1 0 0 1 20.585786 0)"/></svg>