<svg height="24" viewBox="0 0 24 24" width="24" xmlns="http://www.w3.org/2000/svg"><g fill-rule="evenodd"><g fill-rule="nonzero" transform="translate(1 1)"><path d="m12.8123347 11.1207479c2.0455742 0 3.7035262-1.64208599 3.7035262-3.66738775 0-2.02530177-1.6582671-3.66707566-3.7035262-3.66707566-2.045259 0-3.70415636 1.64208596-3.70415636 3.66738772 0 2.02530177 1.65889736 3.66707569 3.70415636 3.66707569z"/><path d="m17.3859596 12.4347826h-3.951177c-.5522847 0-1 .4477153-1 1v7.5922689c-1.6228148-.067394-3.52176379-.3510403-5.66147705-1.0130756l-.26471766-.0820731-.00976934-.0596044v-3.8056326c0-2.5892031 2.12719548-4.6959539 4.74191265-4.6959539h3.1425768c1.1384423 0 2.1844645.3993795 3.0026516 1.0640707z"/><path d="m6.31383133 7.33508752c.72450702 0 1.39859163-.20939561 1.96962544-.56608589.18152069-1.17242816.81621279-2.19693751 1.72287073-2.89471482.0037817-.06865429.0103997-.13668446.0103997-.20596289 0-2.02561383-1.65826709-3.66738773-3.70289587-3.66738773-2.04588934 0-3.70352612 1.6417739-3.70352612 3.66738773 0 2.02467764 1.65763678 3.6667636 3.70352612 3.6667636z"/><path d="m9.63981964 10.7328511c-.83827259-.79607779-1.36896847-1.90266023-1.4077307-3.13063595-.1156564-.00842576-.23005225-.01747564-.34791464-.01747564h-3.14226165c-2.61471717 0-4.74191265 2.10643866-4.74191265 4.69532979v3.8062566l.00976934.0586683.26471766.0826972c2.00176973.6188249 3.7882988.9040523 5.34004851.993927v-1.1493354c.00063028-2.5208609 1.70049582-4.6544493 4.02528413-5.3394319z"/></g><rect height="3.659735" rx="1" width="3.659735" x="14.391304" y="14.391304"/><rect height="3.659735" rx="1" width="3.659735" x="19.173913" y="14.391304"/><rect height="3.659735" rx="1" width="3.659735" x="14.391304" y="19.173913"/><rect height="3.659735" rx="1" width="3.659735" x="19.173913" y="19.173913"/></g></svg>