<svg height="20" viewBox="0 0 20 20" width="20" xmlns="http://www.w3.org/2000/svg"><path d="m10 20c-.55228475 0-1-.4477153-1-1s.44771525-1 1-1c.6009772 0 1.192649-.066091 1.7679146-.1957828.5387628-.1214623 1.073981.2168266 1.1954433.7555894s-.2168266 1.073981-.7555894 1.1954433c-.7193784.1621815-1.4585634.2447501-2.2077685.2447501zm7.8098554-3.7539796c-.3451929.4311151-.974515.5007688-1.4056301.1555759-.4311152-.345193-.5007689-.974515-.1555759-1.4056302.3716275-.4641296.6906791-.9680708.9505845-1.5025692.2415149-.496678.8399384-.7035286 1.3366164-.4620138s.7035286.8399383.4620138 1.3366163c-.3250159.668399-.7237651 1.2982222-1.1880087 1.878021zm1.9572145-8.40068315c.1185127.53941929-.2226995 1.07277859-.7621188 1.19129134-.5394193.11851274-1.0727786-.22269943-1.1912913-.76211873-.1278395-.58187061-.3201995-1.14510862-.5728519-1.68107839-.2354904-.49956256-.0214175-1.09544066.478145-1.33093099.4995626-.23549033 1.0954407-.02141749 1.330931.47814507.3162555.67089551.5571302 1.37618661.717186 2.1046917zm-5.4110512-6.84901715c.4970005.24085061.7046509.83899706.4638003 1.33599749s-.8389971.70465089-1.3359975.46380027c-.5334307-.25850503-1.0947067-.45695861-1.6751306-.59102931-.5381157-.12429801-.8735811-.66129038-.7492831-1.19940603.124298-.53811564.6612904-.87358112 1.199406-.74928311.7267195.16786315 1.4295311.41636031 2.0972049.73992069zm-8.59129161-.05751658c.50019002-.23415462 1.09549397-.01849032 1.32964859.4816997.23415463.50019002.01849032 1.09549398-.4816997 1.3296486-.53832024.25200458-1.04685701.56361342-1.51634918.92840068-.4361152.33885393-1.0643518.26000809-1.40320572-.1761071-.33885393-.43611519-.26000809-1.06435179.1761071-1.40320572.58656689-.45575228 1.22222559-.84525582 1.89549891-1.16043616zm-5.47500994 6.66274856c.13205758-.53626415.67383939-.86393832 1.21010355-.73188073.53626415.13205758.86393831.67383939.73188073 1.21010354-.14106749.5728519-.21867242 1.16302276-.23019594 1.76325368-.01060108.55218303-.46682771.99122193-1.01901071.98062083s-.99122189-.4668277-.98062081-1.01901072c.01437602-.74881014.11137759-1.48648884.28784318-2.2030866zm1.77024506 8.47833302c-.33605423-.4382762-.25318697-1.065995.1850892-1.4020492.43827616-.3360543 1.06599498-.253187 1.40204921.1850892.36182181.4718818.77522801.9025878 1.23190829 1.283541.42410043.3537758.48110986.984369.12733412 1.4084694s-.98436896.4811099-1.40846939.1273341c-.57011809-.4755806-1.08615752-1.0132148-1.53791143-1.6023845z"/></svg>