<svg height="24" viewBox="0 0 24 24" width="24" xmlns="http://www.w3.org/2000/svg"><g fill="#000" fill-rule="evenodd"><path d="m2.8125.1175c-1.05106691 0-1.903125.85205809-1.903125 1.903125s.85205809 1.903125 1.903125 1.903125 1.903125-.85205809 1.903125-1.903125-.85205809-1.903125-1.903125-1.903125z" transform="translate(14)"/><path d="m16.7000522 10c-.5361111.0003477-1.0500835.2088262-1.4286663.5794984-.3785828.3706723-.5907087.8731201-.5896371 1.3966321v4.1966495c-.001901 1.8903146-1.3512119 3.5244002-3.24261 3.9269694-1.89139815.4025691-3.81471805-.534963-4.62204562-2.2530397-.48487395-.9489555-1.65287159-1.3516878-2.64044403-.9104402-.98757245.4412476-1.43910383 1.5675858-1.02075837 2.5462664 1.32168972 2.837213 4.21788661 4.659814 7.40986462 4.6630899 4.5025474-.0050636 8.1519144-3.5669104 8.1593279-7.9636484v-4.1966495c.0021468-.5258154-.210256-1.0308138-.5902559-1.4033634-.38-.3725496-.8963018-.58196868-1.4347752-.5819645z"/></g></svg>