<svg height="24" viewBox="0 0 24 24" width="24" xmlns="http://www.w3.org/2000/svg"><g transform="translate(1 1)"><path d="m15.458222 12.4347826h-2.9799611c-.5522848 0-1 .4477153-1 1v7.9517396c-.7282521.0831709-1.53872799.1352169-2.42670034.1352169-2.18985106 0-4.85039246-.3159658-7.91278043-1.2634802l-.32488076-.100726-.01198965-.0731509v-4.670549c0-3.1776585 2.610649-5.76321619 5.81962008-5.76321619h3.8567988c2.1088576 0 3.9593119 1.11665019 4.9798934 2.78416579zm-6.90790605-3.09093985c-2.51009066 0-4.54601012-2.01490433-4.54601012-4.50050195s2.03591946-4.50088494 4.54601012-4.50088494c2.51009065 0 4.54523665 2.01490433 4.54523665 4.50050195s-2.0347592 4.50088494-4.54523665 4.50088494z"/><rect height="3.826087" rx="1" width="3.826087" x="12.434783" y="13.391304"/><rect height="3.826087" rx="1" width="3.826087" x="17.217391" y="13.391304"/><rect height="3.826087" rx="1" width="3.826087" x="12.434783" y="18.173913"/><rect height="3.826087" rx="1" width="3.826087" x="17.217391" y="18.173913"/></g></svg>