<svg height="24" viewBox="0 0 24 24" width="24" xmlns="http://www.w3.org/2000/svg"><path d="m14.0346687 6.08946658c.998727.62008216 1.699049 1.66939036 1.8265518 2.88739935.4073081.18845372.8593636.29682796 1.3386447.29682796 1.7497267 0 3.1678922-1.40432726 3.1678922-3.13671348 0-1.73265315-1.4181655-3.13698041-3.1678922-3.13698041-1.7330138.00053386-3.1387795 1.37976955-3.1651965 3.08946658zm-2.0753576 6.42290862c1.7497267 0 3.1678922-1.4045941 3.1678922-3.13698036 0-1.73238622-1.418435-3.13671348-3.1678922-3.13671348-1.7494571 0-3.16843128 1.40459419-3.16843128 3.13698041 0 1.73238623 1.41897418 3.13671343 3.16843128 3.13671343zm1.3437664.2138123h-2.6880719c-2.23655558 0-4.05609882 1.8020553-4.05609882 4.016787v3.2552311l.00835642.050984.22643205.070203c2.13439161.6603888 3.98870835.8806074 5.51496815.8806074 2.9810858 0 4.7089779-.8416354 4.8154549-.8952887l.2116061-.1059718h.0226433v-3.255765c.0008086-2.2147317-1.8187346-4.016787-4.0552902-4.016787zm5.2410932-3.23841445h-2.6673156c-.0288431 1.05678225-.4844028 2.00839355-1.204942 2.69280615 1.9880195.5853811 3.4425759 2.4109264 3.4425759 4.5672001v1.003129c2.6336203-.0955615 4.1512542-.8346952 4.2512617-.8843445l.2116061-.1062387h.0226432v-3.2562989c0-2.2144647-1.8195432-4.01625315-4.0558293-4.01625315zm-12.1434968-.2135453c.61972296 0 1.19631599-.17911112 1.68476227-.48421396.15526769-1.0028621.69816548-1.87919861 1.47369524-2.47605772.00323474-.05872495.00889555-.11691605.00889555-.17617486 0-1.73265316-1.41843505-3.13698042-3.16735306-3.13698042-1.74999625 0-3.16789217 1.40432726-3.16789217 3.13698042 0 1.73185235 1.41789592 3.13644654 3.16789217 3.13644654zm2.84495695 2.90635145c-.71703482-.6809425-1.17097716-1.6274821-1.20413328-2.67785798-.09892924-.00720715-.19678024-.01494817-.29759641-.01494817h-2.68780232c-2.2365556 0-4.05609884 1.80178845-4.05609884 4.01625315v3.255765l.00835642.0501831.22643205.0707369c1.71225758.5293254 3.24040434.7733009 4.56772744.8501772v-.9831091c.00053913-2.1562737 1.45455635-3.9812852 3.44311494-4.5672001z" fill="#2d5fe6" fill-rule="evenodd"/></svg>