<svg height="88" viewBox="0 0 376 88" width="376" xmlns="http://www.w3.org/2000/svg"><g fill="none" fill-rule="evenodd"><path d="m0 0h376v88h-376z"/><g fill="#000" transform="translate(16 8)"><rect height="4" rx="2" width="270" x="29" y="34"/><path d="m16 52c-8.836556 0-16-7.163444-16-16s7.163444-16 16-16 16 7.163444 16 16-7.163444 16-16 16zm0-4c6.627417 0 12-5.372583 12-12s-5.372583-12-12-12-12 5.372583-12 12 5.372583 12 12 12z"/><path d="m39.0624458 33.0624458h19.5c1.6568543 0 3 1.3431458 3 3 0 1.6568543-1.3431457 3-3 3h-19.5v19.5c0 1.6568543-1.3431457 3-3 3-1.6568542 0-3-1.3431457-3-3v-19.5h-19.5c-1.6568542 0-3-1.3431457-3-3 0-1.6568542 1.3431458-3 3-3h19.5v-19.5c0-1.6568542 1.3431458-3 3-3 1.6568543 0 3 1.3431458 3 3z" fill-rule="nonzero" transform="matrix(.70710678 .70710678 -.70710678 .70710678 325.062446 -14.937554)"/></g></g></svg>