<?xml version="1.0" encoding="UTF-8"?>
<svg width="20px" height="20px" viewBox="0 0 20 20" version="1.1" xmlns="http://www.w3.org/2000/svg" xmlns:xlink="http://www.w3.org/1999/xlink">
    <!-- Generator: Sketch 52.5 (67469) - http://www.bohemiancoding.com/sketch -->
    <title>icon/search-grey</title>
    <desc>Created with Sketch.</desc>
    <g id="icon/search-grey" stroke="none" stroke-width="1" fill="none" fill-rule="evenodd">
        <path d="M12.0282694,13.3029936 C10.9902238,13.9965059 9.72010385,14.4044212 8.34836903,14.4044212 C4.84226145,14.4044212 2,11.7395259 2,8.45221058 C2,5.16489528 4.84226145,2.5 8.34836903,2.5 C11.8544766,2.5 14.6967381,5.16489528 14.6967381,8.45221058 C14.6967381,9.73834478 14.2616734,10.9292052 13.5220033,11.9024734 L17.6931067,15.8132867 C18.1040336,16.1985705 18.1006075,16.8150445 17.692958,17.1972554 L17.6754537,17.2136674 C17.2688468,17.5949007 16.6069402,17.5959407 16.1993728,17.2138069 L12.0282694,13.3029936 Z M8.34836903,13.003901 C11.0295102,13.003901 13.2030042,10.96604 13.2030042,8.45221058 C13.2030042,5.9383812 11.0295102,3.90052014 8.34836903,3.90052014 C5.66722791,3.90052014 3.49373389,5.9383812 3.49373389,8.45221058 C3.49373389,10.96604 5.66722791,13.003901 8.34836903,13.003901 Z" id="search" fill="#949BA5" fill-rule="nonzero"></path>
    </g>
</svg>