<svg height="24" viewBox="0 0 24 24" width="24" xmlns="http://www.w3.org/2000/svg"><path d="m20.8398769 14-1-.5833333c-1.0833333-.6666667-1.0833333-2.25 0-2.9166667l1-.58333333c.8333334-.5 1.0833334-1.5.5833334-2.25l-.8333334-1.41666667c-.5-.83333333-1.5-1.08333333-2.25-.58333333l-1 .58333333c-1.0833333.66666667-2.5-.16666667-2.5-1.41666667v-1.16666666c0-.91666667-.75-1.66666667-1.6666666-1.66666667h-1.6666667c-.9166667 0-1.66666666.75-1.66666666 1.66666667v1.08333333c0 1.25-1.41666667 2.08333333-2.5 1.41666667l-1-.5c-.83333333-.5-1.83333333-.16666667-2.25.58333333l-.83333333 1.41666667c-.41666667.83333333-.16666667 1.83333333.58333333 2.33333333l1 .5833333c1.08333333.5833334 1.08333333 2.25 0 2.8333334l-1 .5833333c-.83333333.5-1.08333333 1.5-.58333333 2.25l.83333333 1.4166667c.5.8333333 1.5 1.0833333 2.25.5833333l1-.5c1.08333333-.6666667 2.5.1666667 2.5 1.4166667v1.1666666c0 .9166667.74999996 1.6666667 1.66666666 1.6666667h1.6666667c.9166666 0 1.6666666-.75 1.6666666-1.6666667v-1.0833333c0-1.25 1.4166667-2.0833333 2.5-1.4166667l1 .5833334c.8333334.5 1.8333334.1666666 2.25-.5833334l.8333334-1.4166666c.4166666-.9166667.1666666-1.9166667-.5833334-2.4166667zm-8.5 1.3333333c-1.8333333 0-3.33333329-1.5-3.33333329-3.3333333s1.49999999-3.33333333 3.33333329-3.33333333c1.8333334 0 3.3333334 1.50000003 3.3333334 3.33333333s-1.5 3.3333333-3.3333334 3.3333333z" fill="#2d5fe6" fill-rule="evenodd"/></svg>