<svg height="24" viewBox="0 0 24 24" width="24" xmlns="http://www.w3.org/2000/svg"><g fill="#2d5fe6" fill-rule="evenodd" transform="translate(5.5 4)"><path d="m8.71890717 5.80710956c-.20633533 0-.37356322.16695806-.37356322.37296037v7.04895107c0 .2058566.16722789.3729604.37356322.3729604.20633529 0 .37356322-.1671038.37356322-.3729604v-7.04895107c0-.20600231-.16722793-.37296037-.37356322-.37296037z"/><path d="m4.31086119 5.80710956c-.20633533 0-.37356322.16695806-.37356322.37296037v7.04895107c0 .2058566.16722789.3729604.37356322.3729604.20633529 0 .37356322-.1671038.37356322-.3729604v-7.04895107c0-.20600231-.16722793-.37296037-.37356322-.37296037z"/><path d="m1.09821751 4.7784091v9.1889569c0 .5431235.1994769 1.0531759.54794133 1.4191433.34685928.3669872.82957304.5753205 1.3347589.5761947h7.06793286c.5053318-.0008742.9880455-.2092075 1.3347589-.5761947.3484644-.3659674.5479413-.8760198.5479413-1.4191433v-9.1889569c.6926971-.18356643 1.1415567-.85169 1.0488955-1.56133453-.0928071-.70949881-.6982422-1.24023891-1.4150166-1.24038459h-1.91261449v-.46620047c.00218882-.39204546-.15307339-.76850234-.43105695-1.04545454-.27798356-.27680653-.65563262-.43094406-1.04831178-.42773893h-3.31712464c-.39267916-.00320513-.77032823.1509324-1.04831178.42773893-.27798356.2769522-.43324577.65340908-.43105692 1.04545454v.46620047h-1.9126145c-.71677442.00014568-1.32220949.53088578-1.41501664 1.24038459-.09266116.70964453.35619839 1.3777681 1.04889551 1.56133453zm8.95063309 10.4383741h-7.06793286c-.63870554 0-1.13557379-.5477855-1.13557379-1.2494172v-9.15617719h9.33908045v9.15617719c0 .7016317-.4968683 1.2494172-1.1355738 1.2494172zm-5.92477102-13.70629369c-.00248072-.19420162.073983-.38111888.2120263-.51821095.13789735-.13709206.32555448-.2124126.52021596-.20906178h3.31712464c.19466144-.00335082.38231861.07196972.52021596.20906178.1380433.13694639.21450702.32400933.21202634.51821095v.46620047h-4.7816092zm-2.65974094 1.21212121h10.10109106c.3713743 0 .6724138.30055362.6724138.67132867s-.3010395.67132868-.6724138.67132868h-10.10109106c-.3713744 0-.67241379-.30055363-.67241379-.67132868s.30103939-.67132867.67241379-.67132867z"/><path d="m6.51488418 5.80710956c-.20633533 0-.37356322.16695806-.37356322.37296037v7.04895107c0 .2058566.16722789.3729604.37356322.3729604.20633529 0 .37356322-.1671038.37356322-.3729604v-7.04895107c0-.20600231-.16722793-.37296037-.37356322-.37296037z"/></g></svg>